<svg id="cityscape" xmlns="http://www.w3.org/2000/svg" xmlns:xlink="http://www.w3.org/1999/xlink" viewBox="0 0 43.44 42.56"><defs><style>.cls-1{fill:none;clip-rule:evenodd;}.cls-2{clip-path:url(#clip-path);}.cls-3{fill:#095380;}</style><clipPath id="clip-path"><path class="cls-1" d="M21.8,3.09A18.69,18.69,0,0,1,40.26,22,18.69,18.69,0,0,1,21.8,40.82,18.69,18.69,0,0,1,3.34,22,18.69,18.69,0,0,1,21.8,3.09Zm0-1.53a20.28,20.28,0,0,0-20,20.5,20.28,20.28,0,0,0,20,20.5,20.28,20.28,0,0,0,20-20.5A20.28,20.28,0,0,0,21.8,1.56Zm6.88,6.32L18.08,11.64V8.88H13.34v4.43L9.61,14.62,6,23.15c0,.14.4,2.26.4,2.26a21.55,21.55,0,0,1,5.69-.77,22,22,0,0,1,19,11.16l1-.66a24,24,0,0,0-2.22-3.2V24.72l-4.68-.87v3.73a22.81,22.81,0,0,0-11.36-4.11,23.72,23.72,0,0,0,14.62-12.9L34,23.48l1.47.28Zm-2,17.45,2.2.42v4.82a23.29,23.29,0,0,0-2.2-2.06Zm-19.34-2,3.29-7.69,4.07-1.43V10.16H17v3.27l10.78-3.8A22.7,22.7,0,0,1,7.29,23.37Zm20.44-4.8,1.1.19V21l-1.1-.19ZM26.63,17v4.8l3.52.65V17.7Z"/></clipPath></defs><title>website_home</title><g class="cls-2"><rect class="cls-3" x="-3.2" y="-3.44" width="50" height="51"/></g></svg>