<?xml version="1.0" encoding="utf-8"?>
<!-- Generator: Adobe Illustrator 21.0.0, SVG Export Plug-In . SVG Version: 6.00 Build 0)  -->
<svg version="1.1" id="Layer_1" xmlns="http://www.w3.org/2000/svg" xmlns:xlink="http://www.w3.org/1999/xlink" x="0px" y="0px"
	 viewBox="0 0 1280 350" style="enable-background:new 0 0 1280 350;" xml:space="preserve">
<style type="text/css">
	.st0{fill:#05314D;}
</style>
<g>
	<path class="st0" d="M499.8,32.3h27.3v31.9l-0.7,14.1c7.1-6.3,15.8-10.2,24.3-10.2c22.3,0,36.2,18.4,36.2,46.6
		c0,31.7-18.9,49.9-38.8,49.9c-8.2,0-16.7-4.1-23.9-11.9h-0.7l-2.2,9.7h-21.3V32.3z M541.7,142.3c9.5,0,17.1-8.2,17.1-27.1
		c0-16.5-5-24.9-16-24.9c-5.6,0-10.6,2.6-15.8,8.4v37.7C531.9,140.9,537.1,142.3,541.7,142.3z"/>
	<path class="st0" d="M606.2,32.3h27.3v102.6c0,5.8,2.6,7.6,4.8,7.6c1.1,0,1.9,0,3.3-0.4l3.3,20.2c-3,1.3-7.6,2.2-13.7,2.2
		c-18.7,0-25.1-12.2-25.1-30.8V32.3z"/>
	<path class="st0" d="M658.3,70.3h27.3V124c0,13.2,3.5,17.4,11.5,17.4c6.9,0,11-3,16.3-10.2V70.3h27.3v92.1h-22.3l-2-12.8h-0.6
		c-7.8,9.3-16.3,15-29,15c-20,0-28.6-14.1-28.6-37.1V70.3z"/>
	<path class="st0" d="M802.7,68.1c26.2,0,39.2,19.1,39.2,44.2c0,4.8-0.6,9.3-1.1,11.5h-55.1c2.4,13.9,11.7,20,23.9,20
		c6.9,0,13.2-2,19.9-6.1l9.1,16.5c-9.5,6.5-21.7,10.4-32.7,10.4c-26.4,0-46.6-17.8-46.6-48.3C759.3,86.5,780.6,68.1,802.7,68.1z
		 M818.7,106.9c0-10.6-4.5-18-15.4-18c-8.5,0-16,5.8-17.8,18H818.7z"/>
	<path class="st0" d="M888.1,169.6v26.9h-27.3V70.3h22.3l1.9,9.1h0.7c7.2-6.5,16.5-11.3,26.2-11.3c22.3,0,36,18.4,36,46.8
		c0,31.6-18.9,49.7-38.8,49.7c-8,0-15.4-3.5-21.9-9.7L888.1,169.6z M902.8,142.3c9.5,0,17.1-8.2,17.1-27.1c0-16.5-5-24.9-16-24.9
		c-5.6,0-10.4,2.6-15.8,8.4v37.7C893,140.9,898.1,142.3,902.8,142.3z"/>
	<path class="st0" d="M967.2,70.3h22.3l1.9,16.1h0.7c6.7-12.4,16.7-18.4,26.2-18.4c5.2,0,8.4,0.7,11,1.9l-4.5,23.6
		c-3.3-0.9-6.1-1.5-10-1.5c-6.9,0-15.4,4.5-20.2,16.9v53.5h-27.3V70.3z"/>
	<path class="st0" d="M1038.9,42.5c0-8.4,6.7-14.1,15.8-14.1c9.3,0,15.8,5.8,15.8,14.1c0,8.4-6.5,14.3-15.8,14.3
		C1045.5,56.8,1038.9,50.8,1038.9,42.5z M1041.1,70.3h27.3v92.1h-27.3V70.3z"/>
	<path class="st0" d="M1092.3,70.3h22.3l1.9,11.7h0.7c7.8-7.4,17.1-13.9,29.5-13.9c20,0,28.6,14.1,28.6,37.1v57.2H1148v-53.6
		c0-13.4-3.5-17.4-11.3-17.4c-6.9,0-11.1,3.2-17.1,8.9v62.2h-27.3V70.3z"/>
	<path class="st0" d="M1202.2,91.7h-12.6V71.4l14.1-1.1l3.2-24.5h22.6v24.5h22.1v21.3h-22.1v36.9c0,10.4,4.6,14.7,11.9,14.7
		c3,0,6.3-0.9,8.7-1.9l4.3,19.9c-4.8,1.5-11.5,3.3-20.4,3.3c-22.8,0-31.7-14.3-31.7-35.6V91.7z"/>
</g>
<g>
	<path class="st0" d="M521.9,226.3c7.4,0,12.3,2.8,18,7.5l-0.5-11.1v-25h11V293h-9l-0.9-7.6h-0.4c-5,5-11.9,9.2-19.5,9.2
		c-16.2,0-26.6-12.3-26.6-34C494,239.4,507.2,226.3,521.9,226.3z M523,285.4c6,0,11.1-2.9,16.4-9v-34c-5.4-5-10.3-6.8-15.6-6.8
		c-10.3,0-18.5,10-18.5,24.9C505.2,276,511.7,285.4,523,285.4z"/>
	<path class="st0" d="M596.2,226.3c16.4,0,25.7,11.9,25.7,30.5c0,2.3-0.1,4.4-0.4,6H578c0.8,14.1,9.1,22.9,21.5,22.9
		c6.1,0,11.3-2,16-5.1l3.8,7.2c-5.6,3.6-12.4,6.7-21.2,6.7c-17.2,0-30.8-12.7-30.8-34C567.3,239.3,581.5,226.3,596.2,226.3z
		 M612.3,255.6c0-13.3-5.8-20.6-15.9-20.6c-9,0-17.2,7.5-18.5,20.6H612.3z"/>
	<path class="st0" d="M636,278.3c5.6,4.6,11.3,7.8,18.9,7.8c8.5,0,12.7-4.6,12.7-10.2c0-6.7-7.7-9.6-14.7-12.3
		c-9.1-3.3-19.2-7.8-19.2-18.7c0-10.4,8.2-18.5,22.1-18.5c8.1,0,15.1,3.3,20,7.4l-5.2,7c-4.4-3.3-9-5.8-14.7-5.8
		c-8.1,0-11.8,4.4-11.8,9.4c0,6,7,8.4,14.3,11.2c9.3,3.5,19.6,7.4,19.6,19.7c0,10.6-8.3,19.4-23.6,19.4c-9.1,0-17.9-3.9-24-9
		L636,278.3z"/>
	<path class="st0" d="M691.2,207.4c0-4.3,3.3-7.1,7.5-7.1s7.5,2.8,7.5,7.1c0,4.2-3.3,7.1-7.5,7.1S691.2,211.6,691.2,207.4z
		 M693.2,227.9h10.9V293h-10.9V227.9z"/>
	<path class="st0" d="M730.3,290.7v-0.5c-3.2-2-5.7-5.5-5.7-10.6c0-5.5,3.7-9.8,7-12.1V267c-4.2-3.5-8.3-9.8-8.3-17.5
		c0-14.2,11.1-23.2,24.2-23.2c3.6,0,6.8,0.7,9.1,1.6H779v8.4h-13.2c3,2.9,5.3,7.9,5.3,13.4c0,13.9-10.5,22.6-23.6,22.6
		c-3.2,0-6.8-0.8-9.7-2.3c-2.3,2-4.1,4.2-4.1,7.8c0,4.2,2.6,7.1,11.4,7.1h12.4c15,0,22.5,4.7,22.5,15.5c0,12.1-12.6,22.5-32.6,22.5
		c-15.8,0-26.6-6.3-26.6-17.5C720.9,300,724.4,294.7,730.3,290.7z M749.1,315.4c12.3,0,20.4-6.4,20.4-13.3c0-6-4.6-8-13-8h-11.1
		c-2.5,0-5.6-0.3-8.3-1.1c-4.6,3.3-6.6,7.2-6.6,11C730.4,310.9,737.4,315.4,749.1,315.4z M761.1,249.5c0-9.5-6.1-15.1-13.6-15.1
		c-7.5,0-13.6,5.6-13.6,15.1s6.2,15.5,13.6,15.5C754.9,265,761.1,259,761.1,249.5z"/>
	<path class="st0" d="M792.5,227.9h9l0.9,9.4h0.4c6.1-6.2,12.7-11,21.6-11c13.5,0,19.6,8.8,19.6,25.4V293h-10.9v-39.8
		c0-12.2-3.7-17.4-12.2-17.4c-6.6,0-11.1,3.5-17.6,10V293h-10.9V227.9z"/>
	<path class="st0" d="M882,278.3c5.6,4.6,11.3,7.8,18.9,7.8c8.5,0,12.7-4.6,12.7-10.2c0-6.7-7.7-9.6-14.7-12.3
		c-9.1-3.3-19.2-7.8-19.2-18.7c0-10.4,8.2-18.5,22.1-18.5c8.1,0,15.1,3.3,20,7.4l-5.2,7c-4.4-3.3-9-5.8-14.7-5.8
		c-8.1,0-11.8,4.4-11.8,9.4c0,6,7,8.4,14.3,11.2c9.3,3.5,19.6,7.4,19.6,19.7c0,10.6-8.3,19.4-23.6,19.4c-9.1,0-17.9-3.9-24-9
		L882,278.3z"/>
	<path class="st0" d="M939.7,311.9c7.3,0,11.9-5.9,14.6-13.9l1.5-4.8l-25.8-65.2h11.3l13.1,36c2,5.6,4.2,12.3,6.2,18.3h0.5
		c1.9-5.9,3.7-12.6,5.4-18.3l11.5-36h10.6l-24.2,70.4c-4.5,12.9-11.1,22.6-24.1,22.6c-2.9,0-5.4-0.5-7.5-1.3l2.1-8.7
		C936.1,311.4,938.1,311.9,939.7,311.9z"/>
	<path class="st0" d="M999.3,278.3c5.6,4.6,11.3,7.8,18.9,7.8c8.5,0,12.7-4.6,12.7-10.2c0-6.7-7.7-9.6-14.7-12.3
		c-9.1-3.3-19.2-7.8-19.2-18.7c0-10.4,8.2-18.5,22.1-18.5c8.1,0,15.1,3.3,20,7.4l-5.2,7c-4.4-3.3-9-5.8-14.7-5.8
		c-8.1,0-11.8,4.4-11.8,9.4c0,6,7,8.4,14.3,11.2c9.3,3.5,19.6,7.4,19.6,19.7c0,10.6-8.3,19.4-23.6,19.4c-9.1,0-17.9-3.9-24-9
		L999.3,278.3z"/>
	<path class="st0" d="M1058.3,236.9h-9.5v-8.3l10.1-0.7l1.3-18.2h9.1v18.2h17.3v9h-17.3v36.2c0,8,2.5,12.6,9.9,12.6
		c2.2,0,5.2-0.9,7.3-1.7l2.1,8.3c-3.6,1.2-7.9,2.4-11.9,2.4c-13.8,0-18.4-8.8-18.4-21.7V236.9z"/>
	<path class="st0" d="M1124,226.3c16.4,0,25.7,11.9,25.7,30.5c0,2.3-0.1,4.4-0.4,6h-43.4c0.8,14.1,9.1,22.9,21.5,22.9
		c6.1,0,11.3-2,16-5.1l3.8,7.2c-5.6,3.6-12.4,6.7-21.2,6.7c-17.2,0-30.8-12.7-30.8-34C1095.1,239.3,1109.3,226.3,1124,226.3z
		 M1140.1,255.6c0-13.3-5.8-20.6-15.9-20.6c-9,0-17.2,7.5-18.5,20.6H1140.1z"/>
	<path class="st0" d="M1165.5,227.9h9l0.9,9.4h0.4c5.6-6.2,12.3-11,20-11c9.8,0,15.1,4.7,17.7,12.5c6.8-7.4,13.4-12.5,21.2-12.5
		c13.2,0,19.6,8.8,19.6,25.4V293h-10.9v-39.8c0-12.2-3.8-17.4-11.9-17.4c-5,0-10.2,3.3-16.2,10V293h-10.9v-39.8
		c0-12.2-3.8-17.4-12-17.4c-4.8,0-10.2,3.3-16.2,10V293h-10.9V227.9z"/>
</g>
<g>
	<path class="st0" d="M225.4,258.3l7.6-4.6c-4.8-7.9-10.2-15.3-16.2-22.2v-50.1l-34.1-6v25.9c-23.9-16-52.1-26.3-82.7-28.6
		c47.3-14,86.3-46.7,106.4-89.6l39.8,89.6l10.7,1.9L207.8,64.4l-77.2,26V71.3H96.1V102L69,111.1l-26.5,59.3c0.2,1,2.9,15.7,2.9,15.7
		c13.2-3.5,27.1-5.3,41.5-5.3C145.8,180.8,197.4,211.9,225.4,258.3z M191.5,185.6l16.3,2.9v33.3c-5.1-5.1-10.6-9.8-16.3-14.3V185.6z
		 M75.5,118.1l29.5-9.9V79.9h16.7v22.6l78-26.3c-24.5,55.5-82.2,93.8-148,95L75.5,118.1z"/>
	<g>
		<path class="st0" d="M191.5,127.5v32.6l25.3,4.5v-32.6L191.5,127.5z M207.9,154.2l-7.5-1.3v-15l7.5,1.3V154.2z"/>
	</g>
	<path class="st0" d="M157,304.4c80.2,0,145.4-63.8,145.4-142.1c0-78.4-65.2-142.1-145.4-142.1S11.6,83.9,11.6,162.3
		C11.6,240.6,76.8,304.4,157,304.4z M157,31.4c73.8,0,133.8,58.7,133.8,130.8c0,72.1-60,130.8-133.8,130.8
		c-73.8,0-133.8-58.7-133.8-130.8C23.2,90.1,83.2,31.4,157,31.4z"/>
</g>
<rect x="384.9" y="20.1" class="st0" width="3.8" height="284.3"/>
</svg>
