<svg id="0ccf17e2-f57a-44f8-afe4-70fb6b9813e2" data-name="Layer 1" xmlns="http://www.w3.org/2000/svg" viewBox="0 0 491 491.01">
                    <title>nautical-compass</title>
                    <path d="M298.46,379.79A130.9,130.9,0,0,1,140.1,317.16H88a178.74,178.74,0,0,0,155.13,117l55.35,67.29Z"
                        transform="translate(-10.37 -10.46)" style="fill:#49aae6" />
                    <path d="M274.46,256a18.59,18.59,0,1,0-18.59,18.59A18.59,18.59,0,0,0,274.46,256Z" transform="translate(-10.37 -10.46)"
                        style="fill:#49aae6" />
                    <path d="M359.33,256a18.6,18.6,0,1,0-18.59,18.59A18.59,18.59,0,0,0,359.33,256Z" transform="translate(-10.37 -10.46)"
                        style="fill:#49aae6" />
                    <path d="M189.59,256A18.59,18.59,0,1,0,171,274.56,18.59,18.59,0,0,0,189.59,256Z" transform="translate(-10.37 -10.46)"
                        style="fill:#49aae6" />
                    <path d="M213.27,132.14a131,131,0,0,1,158.37,62.64h52.1a178.75,178.75,0,0,0-155.11-117L213.27,10.46Z"
                        transform="translate(-10.37 -10.46)" style="fill:#085280" />
                    <path d="M132.05,298.56A130.9,130.9,0,0,1,194.68,140.2V88.09a178.74,178.74,0,0,0-117,155.12L10.37,298.56Z"
                        transform="translate(-10.37 -10.46)" style="fill:#085280" />
                    <path d="M379.69,213.37a130.92,130.92,0,0,1-62.63,158.37v52.11a178.79,178.79,0,0,0,117-155.12l67.28-55.36Z"
                        transform="translate(-10.37 -10.46)" style="fill:#49aae6" />
                </svg>