<!-- Generated by IcoMoon.io -->
<svg version="1.1" xmlns="http://www.w3.org/2000/svg" width="24" height="24" viewBox="0 0 24 24">
<title>attach</title>
<path fill="#2d2a2a" d="M14.892 8.523l-1.221-1.22-6.106 6.104c-1.012 1.011-1.012 2.651 0 3.663s2.652 1.011 3.663 0l7.327-7.326c1.686-1.685 1.686-4.419 0-6.104s-4.42-1.686-6.105 0l-7.693 7.692c-0.005 0.006-0.012 0.011-0.016 0.016-2.352 2.352-2.352 6.163 0 8.514s6.163 2.351 8.515 0c0.005-0.005 0.010-0.011 0.015-0.016l0.001 0.001 5.251-5.25-1.222-1.22-5.251 5.25c-0.006 0.005-0.011 0.011-0.016 0.016-1.674 1.674-4.398 1.674-6.073 0s-1.674-4.397 0-6.071c0.006-0.006 0.011-0.011 0.017-0.016l-0.001-0.001 7.694-7.692c1.010-1.010 2.653-1.010 3.663 0s1.010 2.653 0 3.663l-7.327 7.326c-0.337 0.337-0.885 0.337-1.221 0s-0.336-0.884 0-1.22l6.106-6.105z"></path>
</svg>
