<!-- Generated by IcoMoon.io -->
<svg version="1.1" xmlns="http://www.w3.org/2000/svg" width="24" height="24" viewBox="0 0 24 24">
<title>bank-note</title>
<path fill="#2d2a2a" d="M20.006 6.834v10.041h-15.987v-10.041h15.987zM20.969 4.834h-17.916c-0.569 0-1.034 0.466-1.034 1.034v11.969c0 0.569 0.466 1.034 1.034 1.034h17.916c0.569 0 1.034-0.466 1.034-1.034v-11.969c0.003-0.569-0.462-1.034-1.034-1.034v0z"></path>
<path fill="#2d2a2a" d="M6.593 6.436c0.497 0.745 0.133 1.862-0.814 2.494s-2.118 0.542-2.616-0.203c-0.497-0.745-0.133-1.862 0.814-2.494s2.118-0.542 2.616 0.203z"></path>
<path fill="#2d2a2a" d="M6.071 15.118c0.633 0.947 0.542 2.118-0.203 2.616s-1.862 0.133-2.494-0.814c-0.633-0.947-0.542-2.118 0.203-2.616s1.862-0.133 2.494 0.814z"></path>
<path fill="#2d2a2a" d="M20.092 6.233c0.947 0.633 1.312 1.749 0.814 2.494s-1.669 0.836-2.616 0.203c-0.947-0.633-1.312-1.749-0.814-2.494s1.669-0.836 2.616-0.203z"></path>
<path fill="#2d2a2a" d="M20.493 14.305c0.745 0.497 0.836 1.669 0.203 2.616s-1.749 1.312-2.494 0.814c-0.745-0.497-0.836-1.669-0.203-2.616s1.749-1.312 2.494-0.814z"></path>
<path fill="#2d2a2a" d="M15.181 11.825c0 2.126-1.419 3.85-3.169 3.85s-3.169-1.724-3.169-3.85c0-2.126 1.419-3.85 3.169-3.85s3.169 1.724 3.169 3.85z"></path>
</svg>
