<!-- Generated by IcoMoon.io -->
<svg version="1.1" xmlns="http://www.w3.org/2000/svg" width="24" height="24" viewBox="0 0 24 24">
<title>binoculars</title>
<path fill="#2d2a2a" d="M3.25 2h7.5v1.25h-7.5zM13.25 2h7.5v1.25h-7.5zM20.594 8.25h-1.094v-5h-5v5h-5v-5h-5v5h-1.094c-0.773 0-1.406 0.633-1.406 1.406v10.938c0 0.773 0.633 1.406 1.406 1.406h5.937c0.773 0 1.406-0.633 1.406-1.406v-7.344h2.5v7.344c0 0.773 0.633 1.406 1.406 1.406h5.937c0.773 0 1.406-0.633 1.406-1.406v-10.938c0-0.773-0.633-1.406-1.406-1.406zM8.797 20.75h-4.844c-0.387 0-0.703-0.281-0.703-0.625s0.316-0.625 0.703-0.625h4.844c0.387 0 0.703 0.281 0.703 0.625s-0.316 0.625-0.703 0.625zM12.625 12h-1.25c-0.344 0-0.625-0.281-0.625-0.625s0.281-0.625 0.625-0.625h1.25c0.344 0 0.625 0.281 0.625 0.625s-0.281 0.625-0.625 0.625zM20.047 20.75h-4.844c-0.387 0-0.703-0.281-0.703-0.625s0.316-0.625 0.703-0.625h4.844c0.387 0 0.703 0.281 0.703 0.625s-0.316 0.625-0.703 0.625z"></path>
</svg>
