<!-- Generated by IcoMoon.io -->
<svg version="1.1" xmlns="http://www.w3.org/2000/svg" width="24" height="24" viewBox="0 0 24 24">
<title>book</title>
<path fill="#2d2a2a" d="M18 3.975h-4c-0.266 0-0.52 0.105-0.707 0.293l-1.293 1.293-1.293-1.293c-0.188-0.188-0.441-0.293-0.707-0.293h-4c-0.553 0-1 0.449-1 1v9c0 0.553 0.447 1 1 1h3.586l1.707 1.707c0.195 0.195 0.451 0.293 0.707 0.293s0.512-0.098 0.707-0.293l1.707-1.707h3.586c0.553 0 1-0.447 1-1v-9c0-0.552-0.447-1-1-1z"></path>
<path fill="#2d2a2a" d="M12 20.975c-0.211 0-0.422-0.066-0.6-0.2l-3.734-2.8h-4.666c-0.553 0-1-0.447-1-1v-11h2v10h4c0.217 0 0.427 0.070 0.6 0.201l3.4 2.549 3.4-2.549c0.173-0.13 0.383-0.201 0.6-0.201h4v-10h2v11c0 0.553-0.447 1-1 1h-4.666l-3.734 2.8c-0.178 0.133-0.389 0.2-0.6 0.2z"></path>
</svg>
