<!-- Generated by IcoMoon.io -->
<svg version="1.1" xmlns="http://www.w3.org/2000/svg" width="24" height="24" viewBox="0 0 24 24">
<title>books</title>
<path fill="#2d2a2a" d="M7 1.975h-4c-0.553 0-1 0.448-1 1v18c0 0.552 0.447 1 1 1h4c0.553 0 1-0.448 1-1v-18c0-0.552-0.447-1-1-1zM6 11.975h-2v-8h2v8z"></path>
<path fill="#2d2a2a" d="M14 5.975h-4c-0.553 0-1 0.448-1 1v14c0 0.552 0.447 1 1 1h4c0.553 0 1-0.448 1-1v-14c0-0.552-0.447-1-1-1zM13 15.975h-2v-8h2v8z"></path>
<path fill="#2d2a2a" d="M21 3.975h-4c-0.553 0-1 0.448-1 1v16c0 0.552 0.447 1 1 1h4c0.553 0 1-0.448 1-1v-16c0-0.552-0.447-1-1-1zM20 13.975h-2v-8h2v8z"></path>
</svg>
