<!-- Generated by IcoMoon.io -->
<svg version="1.1" xmlns="http://www.w3.org/2000/svg" width="24" height="24" viewBox="0 0 24 24">
<title>business-graph-bar-status</title>
<path fill="#2d2a2a" d="M5 7c0.365 0 0.704-0.105 0.999-0.277l4.002 2.288c0.005 1.099 0.897 1.989 1.999 1.989 1.104 0 2-0.896 2-2 0-0.178-0.031-0.346-0.074-0.511l4.563-4.563c0.163 0.044 0.333 0.074 0.511 0.074 1.104 0 2-0.896 2-2 0-1.105-0.896-2-2-2s-2 0.895-2 2c0 0.178 0.031 0.348 0.074 0.513l-4.563 4.562c-0.163-0.043-0.333-0.075-0.511-0.075-0.365 0-0.704 0.105-0.999 0.278l-4.002-2.286c-0.005-1.101-0.897-1.992-1.999-1.992-1.104 0-2 0.895-2 2s0.896 2 2 2z"></path>
<path fill="#2d2a2a" d="M2 22h20v2h-20v-2z"></path>
<path fill="#2d2a2a" d="M10 15h4v6h-4v-6z"></path>
<path fill="#2d2a2a" d="M16 9h4v12h-4v-12z"></path>
<path fill="#2d2a2a" d="M4 13h4v8h-4v-8z"></path>
</svg>
