<!-- Generated by IcoMoon.io -->
<svg version="1.1" xmlns="http://www.w3.org/2000/svg" width="24" height="24" viewBox="0 0 24 24">
<title>calculator</title>
<path fill="#2d2a2a" d="M14 5h2v2h-2v-2z"></path>
<path fill="#2d2a2a" d="M17 2h-10c-1.103 0-2 0.898-2 2v16c0 1.103 0.897 2 2 2h10c1.104 0 2-0.897 2-2v-16c0-1.102-0.896-2-2-2zM8 19c-0.553 0-1-0.448-1-1 0-0.551 0.447-1 1-1 0.552 0 1 0.449 1 1s-0.448 1-1 1zM8 16c-0.553 0-1-0.448-1-1s0.447-1 1-1c0.552 0 1 0.448 1 1s-0.448 1-1 1zM8 13c-0.553 0-1-0.446-1-1 0-0.551 0.447-1 1-1 0.552 0 1 0.449 1 1 0 0.554-0.448 1-1 1zM12 19c-0.553 0-1-0.448-1-1 0-0.551 0.447-1 1-1 0.552 0 1 0.449 1 1s-0.448 1-1 1zM12 16c-0.553 0-1-0.448-1-1s0.447-1 1-1c0.552 0 1 0.448 1 1s-0.448 1-1 1zM12 13c-0.553 0-1-0.446-1-1 0-0.551 0.447-1 1-1 0.552 0 1 0.449 1 1 0 0.554-0.448 1-1 1zM16 19c-0.553 0-1-0.448-1-1 0-0.551 0.447-1 1-1 0.552 0 1 0.449 1 1s-0.448 1-1 1zM16 16c-0.553 0-1-0.448-1-1s0.447-1 1-1c0.552 0 1 0.448 1 1s-0.448 1-1 1zM16 13c-0.553 0-1-0.446-1-1 0-0.551 0.447-1 1-1 0.552 0 1 0.449 1 1 0 0.554-0.448 1-1 1zM16.999 8h-9.999v-4h10l-0.001 4z"></path>
</svg>
