<!-- Generated by IcoMoon.io -->
<svg version="1.1" xmlns="http://www.w3.org/2000/svg" width="24" height="24" viewBox="0 0 24 24">
<title>calendar-check</title>
<path fill="#2d2a2a" d="M16.559 11.716l-6 5.95-3.15-3.178 1.081-1.081 2.109 2.109 4.869-4.859z"></path>
<path fill="#2d2a2a" d="M19 5h-1v-1.95h-3v1.95h-6v-1.95h-3.050v1.95h-0.95c-1.103 0-2 0.897-2 2v0 12c0 1.103 0.897 2 2 2v0h14c1.103 0 2-0.897 2-2v0-12c0-1.103-0.897-2-2-2v0zM16.059 4h1v2.859h-1v-2.859zM7 4h1v2.859h-1v-2.859zM19 19h-14v-10h14v10z"></path>
</svg>
