<!-- Generated by IcoMoon.io -->
<svg version="1.1" xmlns="http://www.w3.org/2000/svg" width="24" height="24" viewBox="0 0 24 24">
<title>calendar</title>
<path fill="#2d2a2a" d="M19 5h-1v-1.95h-3v1.95h-6v-1.95h-3.050v1.95h-0.95c-1.105 0-2 0.895-2 2v0 12c0 1.105 0.895 2 2 2v0h14c1.105 0 2-0.895 2-2v0-12c0-1.105-0.895-2-2-2v0zM16.060 4h1v2.86h-1zM7 4h1v2.86h-1zM19 19h-14v-10h14z"></path>
<path fill="#2d2a2a" d="M6.95 10.94h2.060v2.060h-2.060v-2.060z"></path>
<path fill="#2d2a2a" d="M11 10.94h2.060v2.060h-2.060v-2.060z"></path>
<path fill="#2d2a2a" d="M14.97 10.94h2.060v2.060h-2.060v-2.060z"></path>
<path fill="#2d2a2a" d="M6.95 14.97h2.060v2.060h-2.060v-2.060z"></path>
<path fill="#2d2a2a" d="M11 14.97h2.060v2.060h-2.060v-2.060z"></path>
<path fill="#2d2a2a" d="M14.97 14.97h2.060v2.060h-2.060v-2.060z"></path>
</svg>
