<!-- Generated by IcoMoon.io -->
<svg version="1.1" xmlns="http://www.w3.org/2000/svg" width="24" height="24" viewBox="0 0 24 24">
<title>calendar-note</title>
<path fill="#2d2a2a" d="M19 5h-1v-1.95h-3v1.95h-6v-1.95h-3.050v1.95h-0.95c-1.105 0-2 0.895-2 2v0 12c0 1.105 0.895 2 2 2v0h14c1.105 0 2-0.895 2-2v0-12c0-1.105-0.895-2-2-2v0zM16.060 4h1v2.86h-1zM7 4h1v2.86h-1zM19 19h-14v-10h14z"></path>
<path fill="#2d2a2a" d="M7.030 11.030h9.98v2h-9.98v-2z"></path>
<path fill="#2d2a2a" d="M7.030 15.090h4.97v2h-4.97v-2z"></path>
</svg>
