<!-- Generated by IcoMoon.io -->
<svg version="1.1" xmlns="http://www.w3.org/2000/svg" width="24" height="24" viewBox="0 0 24 24">
<title>cast</title>
<path fill="#2d2a2a" d="M2.208 10.208c5.375 0 9.792 4.375 9.792 9.792h-1.792c0-4.417-3.583-8-8-8v-1.792zM2.208 13.792c3.458 0 6.25 2.75 6.25 6.208h-1.792c0-2.458-2-4.458-4.458-4.458v-1.75zM2.208 17.333c1.458 0 2.667 1.208 2.667 2.667h-2.667v-2.667zM20 4c0.958 0 1.792 0.833 1.792 1.792v12.417c0 0.958-0.833 1.792-1.792 1.792h-6.208v-1.792h6.208v-12.417h-16v2.667h-1.792v-2.667c0-0.958 0.833-1.792 1.792-1.792h16z"></path>
</svg>
