<!-- Generated by IcoMoon.io -->
<svg version="1.1" xmlns="http://www.w3.org/2000/svg" width="21" height="24" viewBox="0 0 21 24">
<title>chevron-circle-down</title>
<path fill="#2d2a2a" d="M10.986 16.348l4.898-4.898c0.27-0.27 0.27-0.702 0-0.971l-1.1-1.1c-0.27-0.27-0.702-0.27-0.971 0l-3.312 3.312-3.312-3.312c-0.27-0.27-0.702-0.27-0.971 0l-1.1 1.1c-0.27 0.27-0.27 0.702 0 0.971l4.898 4.898c0.27 0.27 0.702 0.27 0.971 0zM18.786 12c0 4.575-3.711 8.286-8.286 8.286s-8.286-3.711-8.286-8.286 3.711-8.286 8.286-8.286 8.286 3.711 8.286 8.286z"></path>
</svg>
