<!-- Generated by IcoMoon.io -->
<svg version="1.1" xmlns="http://www.w3.org/2000/svg" width="24" height="24" viewBox="0 0 24 24">
<title>coins</title>
<path fill="#2d2a2a" d="M8.25 14.5h0.833c0.115 0 0.225 0.016 0.334 0.035-0.267-0.271-0.511-0.564-0.739-0.868h-0.428c-0.229 0-0.417 0.188-0.417 0.417 0 0.23 0.188 0.417 0.417 0.417z"></path>
<path fill="#2d2a2a" d="M11.167 16.583c0 1.007-0.717 1.848-1.667 2.041v0.876h-1.667v-0.833h-1.667v-1.667h2.917c0.23 0 0.417-0.187 0.417-0.417 0-0.228-0.187-0.417-0.417-0.417h-0.833c-1.148 0-2.083-0.934-2.083-2.083 0-0.969 0.668-1.779 1.567-2.010-0.439-0.978-0.693-2.056-0.722-3.192-2.879 0.738-5.012 3.343-5.012 6.452 0 3.682 2.985 6.667 6.667 6.667 3.109 0 5.713-2.132 6.451-5.011-1.506-0.038-2.908-0.476-4.114-1.212 0.106 0.249 0.163 0.52 0.163 0.806z"></path>
<path fill="#2d2a2a" d="M15.333 2c-3.682 0-6.667 2.985-6.667 6.667s2.985 6.667 6.667 6.667 6.667-2.985 6.667-6.667c0-3.682-2.985-6.667-6.667-6.667zM17.833 7h-2.917c-0.229 0-0.417 0.188-0.417 0.417 0 0.23 0.188 0.417 0.417 0.417h0.833c1.149 0 2.083 0.935 2.083 2.083 0 1.007-0.717 1.848-1.667 2.041v0.876h-1.667v-0.833h-1.667v-1.667h2.917c0.23 0 0.417-0.187 0.417-0.417 0-0.228-0.187-0.417-0.417-0.417h-0.833c-1.148 0-2.083-0.934-2.083-2.083 0-1.006 0.717-1.848 1.667-2.041v-0.876h1.667v0.833h1.667v1.667z"></path>
</svg>
