<!-- Generated by IcoMoon.io -->
<svg version="1.1" xmlns="http://www.w3.org/2000/svg" width="24" height="24" viewBox="0 0 24 24">
<title>coin-receive</title>
<path fill="#2d2a2a" d="M20.364 15.047c-0.168-0.337-0.546-0.513-0.915-0.42l-6.147 1.536-1.954-0.978 0.82-0.82c0.314-0.314 0.314-0.825 0-1.139l-0.805-0.805c-0.229-0.229-0.568-0.297-0.867-0.179l-3.724 1.491v5.702l6.336 0.792c0.033 0.005 0.068 0.005 0.101 0.005 0.086 0 0.171-0.015 0.254-0.040l7.241-2.414c0.221-0.073 0.4-0.241 0.488-0.455s0.080-0.46-0.023-0.669l-0.805-1.609z"></path>
<path fill="#2d2a2a" d="M5.162 12.993h-1.609c-0.445 0-0.805 0.362-0.805 0.805v5.632c0 0.445 0.36 0.805 0.805 0.805h1.609c0.445 0 0.805-0.36 0.805-0.805v-5.632c0-0.443-0.36-0.805-0.805-0.805z"></path>
<path fill="#2d2a2a" d="M16.275 6.179h2.816v-1.609h-1.609v-0.805h-1.609v0.845c-0.918 0.186-1.609 1.001-1.609 1.971 0 1.109 0.903 2.011 2.011 2.011h0.805c0.221 0 0.402 0.181 0.402 0.402s-0.181 0.402-0.402 0.402h-2.816v1.609h1.609v0.805h1.609v-0.845c0.918-0.186 1.609-1.001 1.609-1.971 0-1.109-0.903-2.011-2.011-2.011h-0.805c-0.221 0-0.402-0.181-0.402-0.402s0.181-0.402 0.402-0.402z"></path>
</svg>
