<!-- Generated by IcoMoon.io -->
<svg version="1.1" xmlns="http://www.w3.org/2000/svg" width="24" height="24" viewBox="0 0 24 24">
<title>compass</title>
<path fill="#2d2a2a" d="M12 2c-5.523 0-10 4.477-10 10s4.477 10 10 10 10-4.477 10-10-4.477-10-10-10zM3.875 12c0-4.487 3.637-8.125 8.125-8.125 2.14 0 4.086 0.828 5.538 2.18l-8.038 3.445-3.445 8.038c-1.353-1.451-2.18-3.397-2.18-5.538zM13.429 13.429l-5.002 2.144 2.144-5.002 2.858 2.858zM12 20.125c-2.14 0-4.086-0.828-5.537-2.18l8.038-3.445 3.445-8.038c1.353 1.451 2.18 3.397 2.18 5.537 0 4.487-3.637 8.125-8.125 8.125z"></path>
</svg>
