<!-- Generated by IcoMoon.io -->
<svg version="1.1" xmlns="http://www.w3.org/2000/svg" width="24" height="24" viewBox="0 0 24 24">
<title>content-box-alt</title>
<path fill="#2d2a2a" d="M10 4.975h6v2h-6v-2z"></path>
<path fill="#2d2a2a" d="M8 7.975h8v2h-8v-2z"></path>
<path fill="#2d2a2a" d="M8 10.975h8v2h-8v-2z"></path>
<path fill="#2d2a2a" d="M20 13.975h-1v-11c0-0.552-0.447-1-1-1h-12c-0.553 0-1 0.448-1 1v11h-1c-0.553 0-1 0.448-1 1v5c0 1.103 0.896 2 2 2h14c1.103 0 2-0.897 2-2v-5c0-0.552-0.447-1-1-1zM7 3.975h10v10h-1c-0.553 0-1 0.448-1 1v1h-6v-1c0-0.552-0.447-1-1-1h-1v-10z"></path>
</svg>
