<!-- Generated by IcoMoon.io -->
<svg version="1.1" xmlns="http://www.w3.org/2000/svg" width="24" height="24" viewBox="0 0 24 24">
<title>content-briefcase</title>
<path fill="#2d2a2a" d="M20.063 6.975h-4.062v-3c0-0.553-0.447-1-1-1h-6c-0.553 0-1 0.447-1 1v3h-4.062c-1.094 0-1.938 0.712-1.938 2.031v10.031c0 1.181 0.844 1.938 2 1.938h16.031c1.188 0 1.969-0.756 1.969-1.938v-10c0-1.194-0.594-2.063-1.938-2.063zM10 5.037h4v1.938h-4v-1.938zM21.006 12.5h-7.994v1.531h-2.044v-1.531h-8v-1.313h18.038v1.313z"></path>
</svg>
