<!-- Generated by IcoMoon.io -->
<svg version="1.1" xmlns="http://www.w3.org/2000/svg" width="24" height="24" viewBox="0 0 24 24">
<title>content-box-filled</title>
<path fill="#2d2a2a" d="M4 10h16v2h-16v-2z"></path>
<path fill="#2d2a2a" d="M4 7h16v2h-16v-2z"></path>
<path fill="#2d2a2a" d="M4 4h16v2h-16v-2z"></path>
<path fill="#2d2a2a" d="M10 13h4v2h-4v-2z"></path>
<path fill="#2d2a2a" d="M20 13h-4c-0.553 0-1 0.448-1 1v2h-6v-2c0-0.552-0.447-1-1-1h-4c-0.553 0-1 0.448-1 1v4c0 1.103 0.896 2 2 2h14c1.103 0 2-0.897 2-2v-4c0-0.552-0.447-1-1-1z"></path>
</svg>
