<!-- Generated by IcoMoon.io -->
<svg version="1.1" xmlns="http://www.w3.org/2000/svg" width="24" height="24" viewBox="0 0 24 24">
<title>credit-card-lock</title>
<path fill="#2d2a2a" d="M18.668 3.667c0-0.92-0.747-1.667-1.667-1.667h-13.333c-0.92 0-1.667 0.747-1.667 1.667v1.667h16.667v-1.667z"></path>
<path fill="#2d2a2a" d="M14.841 10.333h-2.007v-1.667h3.333v1.078c0.529-0.157 1.087-0.245 1.667-0.245 0.283 0 0.561 0.027 0.833 0.067v-2.567h-16.667v6.667c0 0.919 0.747 1.667 1.667 1.667h8.333c0-2.126 1.141-3.98 2.84-5zM8.667 12.833h-4.167v-1.667h4.167v1.667zM10.334 10.333h-5.833v-1.667h5.833v1.667z"></path>
<path fill="#2d2a2a" d="M21.167 14.5c0-1.837-1.495-3.333-3.333-3.333s-3.333 1.496-3.333 3.333c-0.461 0-0.833 0.373-0.833 0.833v5.833c0 0.461 0.372 0.833 0.833 0.833h6.667c0.461 0 0.833-0.372 0.833-0.833v-5.833c0-0.46-0.372-0.833-0.833-0.833zM17.833 12.833c0.919 0 1.667 0.748 1.667 1.667h-3.333c0-0.918 0.747-1.667 1.667-1.667zM20.333 20.333h-5v-4.167h5v4.167z"></path>
<path fill="#2d2a2a" d="M18.668 17.833c0 0.46-0.373 0.833-0.833 0.833s-0.833-0.373-0.833-0.833c0-0.46 0.373-0.833 0.833-0.833s0.833 0.373 0.833 0.833z"></path>
</svg>
