<!-- Generated by IcoMoon.io -->
<svg version="1.1" xmlns="http://www.w3.org/2000/svg" width="24" height="24" viewBox="0 0 24 24">
<title>dollar-circle</title>
<path fill="#2d2a2a" d="M12 2c-5.514 0-10 4.486-10 10 0 5.515 4.486 10 10 10 5.515 0 10-4.485 10-10 0-5.514-4.485-10-10-10zM15 10h-3.5c-0.275 0-0.5 0.226-0.5 0.5 0 0.276 0.225 0.5 0.5 0.5h1c1.379 0 2.5 1.122 2.5 2.5 0 1.208-0.86 2.217-2 2.449v1.051h-2v-1h-2v-2h3.5c0.276 0 0.5-0.224 0.5-0.5 0-0.274-0.224-0.5-0.5-0.5h-1c-1.378 0-2.5-1.122-2.5-2.5 0-1.207 0.86-2.217 2-2.449v-1.051h2v1h2v2z"></path>
</svg>
