<!-- Generated by IcoMoon.io -->
<svg version="1.1" xmlns="http://www.w3.org/2000/svg" width="24" height="24" viewBox="0 0 24 24">
<title>eye-show</title>
<path fill="#2d2a2a" d="M12 10v0c-1.105 0-2 0.895-2 2s0.895 2 2 2v0 0c1.105 0 2-0.895 2-2s-0.895-2-2-2v0z"></path>
<path fill="#2d2a2a" d="M21.31 10.73c-1.94-1.57-5.19-3.85-9.31-3.93v0c-4.090 0.080-7.34 2.36-9.27 3.93-0.384 0.275-0.652 0.69-0.729 1.17l-0.001 0.010c0.010 0.403 0.198 0.761 0.488 0.998l0.002 0.002c1.58 1.53 5 4.24 9.52 4.26v0c4.51 0 7.94-2.73 9.52-4.26 0.293-0.238 0.482-0.596 0.49-0.999l0-0.001c-0.073-0.487-0.334-0.902-0.705-1.177l-0.005-0.003zM12 16c-2.209 0-4-1.791-4-4s1.791-4 4-4c2.209 0 4 1.791 4 4v0c0 2.209-1.791 4-4 4v0z"></path>
</svg>
