<!-- Generated by IcoMoon.io -->
<svg version="1.1" xmlns="http://www.w3.org/2000/svg" width="24" height="24" viewBox="0 0 24 24">
<title>eye-slash</title>
<path fill="#2d2a2a" d="M15.805 16.184l-0.871-1.574c1.295-0.938 2.065-2.444 2.065-4.040 0-0.881-0.234-1.752-0.681-2.511 1.741 0.893 3.192 2.299 4.252 3.94-1.161 1.797-2.801 3.304-4.766 4.185zM11.464 7.714c0-0.29 0.246-0.536 0.536-0.536 1.864 0 3.393 1.529 3.393 3.393 0 0.29-0.246 0.536-0.536 0.536s-0.536-0.246-0.536-0.536c0-1.284-1.049-2.321-2.321-2.321-0.29 0-0.536-0.246-0.536-0.536zM7.412 5.582c0 0.022 0 0.078 0.011 0.101 2.355 4.208 4.688 8.438 7.042 12.645l0.547 0.994c0.067 0.111 0.19 0.179 0.313 0.179 0.201 0 1.261-0.647 1.496-0.781 0.111-0.067 0.179-0.179 0.179-0.313 0-0.179-0.379-0.781-0.491-0.971 2.165-0.982 3.984-2.656 5.268-4.665 0.145-0.224 0.224-0.491 0.224-0.77 0-0.268-0.078-0.547-0.224-0.77-2.21-3.393-5.659-5.659-9.776-5.659-0.67 0-1.351 0.067-2.009 0.19l-0.603-1.083c-0.067-0.111-0.179-0.179-0.313-0.179-0.201 0-1.25 0.647-1.484 0.781-0.111 0.067-0.179 0.179-0.179 0.301zM7 10.571c0 2.076 1.284 3.929 3.214 4.665l-3.125-5.603c-0.056 0.313-0.089 0.625-0.089 0.938zM2 11.999c0 0.29 0.078 0.524 0.224 0.77 0.346 0.569 0.781 1.116 1.216 1.619 2.188 2.511 5.201 4.040 8.56 4.040l-0.826-1.474c-3.248-0.279-6.004-2.254-7.746-4.955 0.826-1.284 1.886-2.411 3.147-3.281l-0.703-1.25c-1.384 0.926-2.779 2.321-3.649 3.761-0.145 0.246-0.224 0.48-0.224 0.77z"></path>
</svg>
