<!-- Generated by IcoMoon.io -->
<svg version="1.1" xmlns="http://www.w3.org/2000/svg" width="24" height="24" viewBox="0 0 24 24">
<title>eye-hide</title>
<path fill="#2d2a2a" d="M12 16c-0.002 0-0.005 0-0.007 0-2.209 0-4-1.791-4-4 0-0.355 0.046-0.7 0.133-1.028l-0.006 0.028-2.4-2.4c-1.138 0.662-2.119 1.35-3.037 2.11l0.037-0.030c-0.391 0.287-0.658 0.722-0.719 1.221l-0.001 0.009c0.010 0.403 0.198 0.761 0.488 0.998l0.002 0.002c1.58 1.53 5 4.24 9.52 4.26v0c0.713-0.008 1.403-0.081 2.072-0.212l-0.072 0.012-1.010-1.080c-0.28 0.070-0.602 0.111-0.934 0.111-0.023 0-0.046-0-0.070-0.001l0.003 0z"></path>
<path fill="#2d2a2a" d="M22 11.91c-0.080-0.491-0.352-0.907-0.734-1.176l-0.006-0.004c-1.89-1.57-5.14-3.85-9.26-3.93v0c-1.351 0.036-2.631 0.289-3.823 0.727l0.083-0.027 1.33 1.33c0.66-0.499 1.495-0.8 2.4-0.8 2.209 0 4 1.791 4 4 0 0.905-0.301 1.74-0.807 2.41l0.007-0.010 1.7 1.7c1.803-0.828 3.347-1.895 4.674-3.184l-0.004 0.004c0.271-0.243 0.441-0.594 0.441-0.985 0-0.019-0-0.039-0.001-0.058l0 0.003z"></path>
<path fill="#2d2a2a" d="M10 12c0 1.105 0.895 2 2 2v0 0c0.155-0.005 0.302-0.026 0.444-0.063l-0.014 0.003-2.4-2.4c-0.021 0.108-0.033 0.232-0.033 0.359 0 0.035 0.001 0.071 0.003 0.106l-0-0.005z"></path>
<path fill="#2d2a2a" d="M14 12c0-1.105-0.895-2-2-2v0 0c-0.371 0.007-0.715 0.114-1.009 0.295l0.009-0.005 2.75 2.71c0.157-0.279 0.25-0.613 0.25-0.969 0-0.011-0-0.022-0-0.033l0 0.002z"></path>
<path fill="#2d2a2a" d="M8.14 11.060l4.86 4.83c0.248-0.059 0.461-0.131 0.666-0.22l-0.026 0.010-5.29-5.27c-0.079 0.182-0.151 0.399-0.205 0.623l-0.005 0.027z"></path>
<path fill="#2d2a2a" d="M4.56 6.63l0.28-0.28-0.44-0.44-0.71 0.71 2 2 0.55-0.3z"></path>
<path fill="#2d2a2a" d="M14.080 17l3.1 3.1 0.43-0.43-2.83-2.83z"></path>
<path fill="#2d2a2a" d="M13.62 15.68c-0.179 0.079-0.392 0.151-0.613 0.204l-0.027 0.006 1.1 1.11 0.7-0.15z"></path>
<path fill="#2d2a2a" d="M8.35 10.41l-2.060-2.060-0.55 0.3 2.4 2.4c0.059-0.248 0.131-0.461 0.22-0.666l-0.010 0.026z"></path>
<path fill="#2d2a2a" d="M6.29 8.35l0.37-0.19-1.82-1.82-0.28 0.28z"></path>
<path fill="#2d2a2a" d="M8.35 10.41l5.27 5.27c0.145-0.071 0.262-0.138 0.376-0.21l-0.016 0.010-5.43-5.48c-0.064 0.11-0.131 0.245-0.19 0.384l-0.010 0.026z"></path>
<path fill="#2d2a2a" d="M15.23 16.73l-0.45 0.12 2.83 2.83 0.28-0.28z"></path>
<path fill="#2d2a2a" d="M6.66 8.16l-0.37 0.19 2.060 2.060c0.071-0.149 0.137-0.27 0.21-0.387l-0.010 0.017z"></path>
<path fill="#2d2a2a" d="M14.78 16.85l0.45-0.12-1.23-1.25c-0.098 0.062-0.215 0.129-0.337 0.19l-0.023 0.010z"></path>
</svg>
