<!-- Generated by IcoMoon.io -->
<svg version="1.1" xmlns="http://www.w3.org/2000/svg" width="24" height="24" viewBox="0 0 24 24">
<title>eye</title>
<path fill="#2d2a2a" d="M3.428 12c1.059-1.641 2.512-3.047 4.253-3.941-0.447 0.759-0.681 1.628-0.681 2.512 0 2.756 2.244 5 5 5s5-2.244 5-5c0-0.881-0.234-1.753-0.681-2.512 1.741 0.894 3.191 2.3 4.253 3.941-1.909 2.947-4.991 5-8.572 5s-6.663-2.053-8.572-5v0zM11.466 7.716c0-0.291 0.247-0.534 0.534-0.534 1.863 0 3.394 1.528 3.394 3.394 0 0.291-0.247 0.534-0.534 0.534-0.291 0-0.534-0.247-0.534-0.534 0-1.272-1.050-2.322-2.322-2.322-0.294-0.003-0.537-0.25-0.537-0.537v0zM2 12c0 0.278 0.091 0.534 0.225 0.769 2.053 3.381 5.813 5.659 9.775 5.659s7.725-2.288 9.775-5.659c0.134-0.234 0.225-0.491 0.225-0.769s-0.091-0.534-0.225-0.769c-2.053-3.372-5.813-5.659-9.775-5.659s-7.725 2.288-9.775 5.659c-0.134 0.234-0.225 0.491-0.225 0.769v0z"></path>
</svg>
