<!-- Generated by IcoMoon.io -->
<svg version="1.1" xmlns="http://www.w3.org/2000/svg" width="24" height="24" viewBox="0 0 24 24">
<title>favorite-o</title>
<path fill="#2d2a2a" d="M12.084 17.7c4.26-3.842 7.057-6.389 7.057-8.978 0-1.796-1.336-3.090-3.132-3.090-1.378 0-2.714 0.877-3.174 2.088h-1.67c-0.459-1.211-1.796-2.088-3.174-2.088-1.796 0-3.132 1.295-3.132 3.090 0 2.589 2.798 5.136 7.057 8.978l0.084 0.084zM16.009 3.836c2.756 0 4.886 2.13 4.886 4.886 0 3.383-3.007 6.097-7.6 10.273l-1.295 1.169-1.295-1.128c-4.594-4.176-7.6-6.932-7.6-10.315 0-2.756 2.13-4.886 4.886-4.886 1.545 0 3.048 0.752 4.009 1.879 0.96-1.128 2.464-1.879 4.009-1.879z"></path>
</svg>
