<!-- Generated by IcoMoon.io -->
<svg version="1.1" xmlns="http://www.w3.org/2000/svg" width="24" height="24" viewBox="0 0 24 24">
<title>file-lock</title>
<path fill="#2d2a2a" d="M12.909 12c0-0.502-0.408-0.909-0.909-0.909s-0.909 0.407-0.909 0.909v1.818h1.818v-1.818z"></path>
<path fill="#2d2a2a" d="M16.013 2h-10.376c-1.003 0-1.818 0.816-1.818 1.818v16.364c0 1.003 0.815 1.818 1.818 1.818h12.727c1.003 0 1.818-0.815 1.818-1.818v-14.013l-4.169-4.169zM15.636 18.364h-7.273v-4.545h0.909v-1.818c0-1.504 1.224-2.727 2.727-2.727s2.727 1.224 2.727 2.727v1.818h0.909v4.545zM14.727 7.455v-4.545l4.545 4.545h-4.545z"></path>
</svg>
