<!-- Generated by IcoMoon.io -->
<svg version="1.1" xmlns="http://www.w3.org/2000/svg" width="24" height="24" viewBox="0 0 24 24">
<title>files-2</title>
<path fill="#2d2a2a" d="M9.5 2h-5c-0.919 0-1.667 0.748-1.667 1.667v5.833c0 0.919 0.747 1.667 1.667 1.667h5c0.919 0 1.667-0.747 1.667-1.667v-5.833c0-0.918-0.747-1.667-1.667-1.667zM4.5 5.333h3.333v0.833h-3.333v-0.833zM9.5 8.667h-5v-0.833h5v0.833z"></path>
<path fill="#2d2a2a" d="M19.5 2h-5c-0.919 0-1.667 0.748-1.667 1.667v5.833c0 0.919 0.747 1.667 1.667 1.667h5c0.919 0 1.667-0.747 1.667-1.667v-5.833c0-0.918-0.747-1.667-1.667-1.667zM14.5 5.333h3.333v0.833h-3.333v-0.833zM19.5 8.667h-5v-0.833h5v0.833z"></path>
<path fill="#2d2a2a" d="M9.5 12.833h-5c-0.919 0-1.667 0.748-1.667 1.667v5.833c0 0.919 0.747 1.667 1.667 1.667h5c0.919 0 1.667-0.747 1.667-1.667v-5.833c0-0.918-0.747-1.667-1.667-1.667zM4.5 16.167h3.333v0.833h-3.333v-0.833zM9.5 19.5h-5v-0.833h5v0.833z"></path>
<path fill="#2d2a2a" d="M19.5 12.833h-5c-0.919 0-1.667 0.748-1.667 1.667v5.833c0 0.919 0.747 1.667 1.667 1.667h5c0.919 0 1.667-0.747 1.667-1.667v-5.833c0-0.918-0.747-1.667-1.667-1.667zM14.5 16.167h3.333v0.833h-3.333v-0.833zM19.5 19.5h-5v-0.833h5v0.833z"></path>
</svg>
