<!-- Generated by IcoMoon.io -->
<svg version="1.1" xmlns="http://www.w3.org/2000/svg" width="24" height="24" viewBox="0 0 24 24">
<title>file-view</title>
<path fill="#2d2a2a" d="M13.818 13.364c0 1.255-1.018 2.273-2.273 2.273s-2.273-1.018-2.273-2.273c0-1.255 1.018-2.273 2.273-2.273s2.273 1.018 2.273 2.273z"></path>
<path fill="#2d2a2a" d="M16.013 2h-10.376c-1.003 0-1.818 0.816-1.818 1.818v16.364c0 1.003 0.815 1.818 1.818 1.818h12.727c1.003 0 1.818-0.815 1.818-1.818v-14.013l-4.169-4.169zM16.339 18.156c-0.302 0.301-0.701 0.466-1.125 0.466s-0.824-0.165-1.125-0.465l-1.007-1.008c-0.475 0.195-0.993 0.305-1.536 0.305-2.255 0-4.091-1.835-4.091-4.091s1.835-4.091 4.091-4.091 4.091 1.835 4.091 4.091c0 0.544-0.112 1.061-0.305 1.535l1.007 1.008c0.62 0.619 0.62 1.629 0 2.249zM14.727 7.455v-4.545l4.545 4.545h-4.545z"></path>
</svg>
