<!-- Generated by IcoMoon.io -->
<svg version="1.1" xmlns="http://www.w3.org/2000/svg" width="24" height="24" viewBox="0 0 24 24">
<title>file-favorite</title>
<path fill="#2d2a2a" d="M12 16l1.629-7.329c-0.995-0.914-1.629-2.214-1.629-3.671 0-1.131 0.39-2.162 1.022-3h-7.022c-1.104 0-2 0.898-2 2v16c0 1.103 0.896 2 2 2h12c1.103 0 2-0.897 2-2v-4.8l-3-1.2-5 2z"></path>
<path fill="#2d2a2a" d="M20 5c0-1.657-1.343-3-3-3s-3 1.343-3 3c0 1.225 0.736 2.274 1.788 2.74l-1.788 6.26 3-2 3 2-1.788-6.26c1.052-0.466 1.788-1.515 1.788-2.74z"></path>
</svg>
