<!-- Generated by IcoMoon.io -->
<svg version="1.1" xmlns="http://www.w3.org/2000/svg" width="24" height="24" viewBox="0 0 24 24">
<title>file-graph</title>
<path fill="#2d2a2a" d="M16.013 2h-10.376c-1.003 0-1.818 0.815-1.818 1.818v16.365c0 1.004 0.815 1.818 1.818 1.818h12.727c1.003 0 1.818-0.815 1.818-1.818v-14.014l-4.169-4.169zM17.455 19.273h-10.909v-10h1.818v5.078l2.085-2.085c0.355-0.355 0.93-0.355 1.285 0l2.085 2.085 2.085-2.085 1.285 1.285-2.727 2.727c-0.355 0.355-0.93 0.355-1.285 0l-2.085-2.085-2.727 2.727v0.533h9.091v1.818zM14.727 7.455v-4.545l4.545 4.545h-4.545z"></path>
</svg>
