<!-- Generated by IcoMoon.io -->
<svg version="1.1" xmlns="http://www.w3.org/2000/svg" width="24" height="24" viewBox="0 0 24 24">
<title>file-audio</title>
<path fill="#2d2a2a" d="M16.013 2h-10.376c-1.003 0-1.818 0.815-1.818 1.818v16.364c0 1.003 0.815 1.818 1.818 1.818h12.727c1.003 0 1.818-0.815 1.818-1.818v-14.013l-4.169-4.169zM15.302 12.239l-2.393-0.798v5.556c0 1.255-1.017 2.273-2.273 2.273s-2.273-1.018-2.273-2.273 1.017-2.273 2.273-2.273c0.155 0 0.308 0.016 0.455 0.046v-5.854l4.786 1.595-0.575 1.726zM14.727 7.455v-4.545l4.545 4.545h-4.545z"></path>
</svg>
