<!-- Generated by IcoMoon.io -->
<svg version="1.1" xmlns="http://www.w3.org/2000/svg" width="24" height="24" viewBox="0 0 24 24">
<title>files-library</title>
<path fill="#2d2a2a" d="M11.51 2h-6.177c-0.919 0-1.667 0.747-1.667 1.667v11.667c0 0.919 0.747 1.667 1.667 1.667h8.333c0.919 0 1.667-0.747 1.667-1.667v-9.51l-3.823-3.823zM10.333 7v-4.167l4.167 4.167h-4.167z"></path>
<path fill="#2d2a2a" d="M16.167 17.833h-10v1.667h10c0.919 0 1.667-0.747 1.667-1.667v-13.333h-1.667v13.333z"></path>
<path fill="#2d2a2a" d="M18.667 20.333h-10v1.667h10c0.919 0 1.667-0.747 1.667-1.667v-13.333h-1.667v13.333z"></path>
</svg>
