<!-- Generated by IcoMoon.io -->
<svg version="1.1" xmlns="http://www.w3.org/2000/svg" width="19" height="24" viewBox="0 0 19 24">
<title>filter</title>
<path fill="#2d2a2a" d="M16.88 4.984c0.106 0.253 0.052 0.548-0.148 0.739l-5.202 5.202v7.829c0 0.275-0.169 0.517-0.412 0.622-0.084 0.032-0.18 0.052-0.264 0.052-0.18 0-0.349-0.063-0.475-0.201l-2.702-2.702c-0.126-0.126-0.201-0.295-0.201-0.475v-5.129l-5.202-5.202c-0.201-0.19-0.253-0.485-0.148-0.739 0.106-0.243 0.349-0.412 0.622-0.412h13.507c0.275 0 0.517 0.169 0.622 0.412z"></path>
</svg>
