<!-- Generated by IcoMoon.io -->
<svg version="1.1" xmlns="http://www.w3.org/2000/svg" width="24" height="24" viewBox="0 0 24 24">
<title>folder-block</title>
<path fill="#2d2a2a" d="M10.302 16.258c0.496 0.307 1.074 0.492 1.698 0.492 1.792 0 3.25-1.458 3.25-3.25 0-0.624-0.186-1.201-0.492-1.697l-4.456 4.455z"></path>
<path fill="#2d2a2a" d="M12 10.25c-1.792 0-3.25 1.458-3.25 3.25 0 0.624 0.186 1.202 0.492 1.697l4.456-4.455c-0.496-0.306-1.074-0.492-1.698-0.492z"></path>
<path fill="#2d2a2a" d="M20 6.5h-8l-1.447-1.895c-0.339-0.677-1.032-1.105-1.789-1.105h-5.764c-0.553 0-1 0.447-1 1v14c0 1.104 0.896 2 2 2h16c1.104 0 2-0.896 2-2v-10c0-1.104-0.896-2-2-2zM12 18.25c-2.619 0-4.75-2.131-4.75-4.75s2.131-4.75 4.75-4.75 4.75 2.131 4.75 4.75-2.131 4.75-4.75 4.75z"></path>
</svg>
