<!-- Generated by IcoMoon.io -->
<svg version="1.1" xmlns="http://www.w3.org/2000/svg" width="24" height="24" viewBox="0 0 24 24">
<title>folder-lock</title>
<path fill="#2d2a2a" d="M12 10.869c-0.551 0-1 0.449-1 1v1.631h2v-1.631c0-0.551-0.449-1-1-1z"></path>
<path fill="#2d2a2a" d="M20 6.5h-8l-1.447-1.895c-0.339-0.677-1.032-1.105-1.789-1.105h-5.764c-0.553 0-1 0.447-1 1v14c0 1.104 0.896 2 2 2h16c1.104 0 2-0.896 2-2v-10c0-1.104-0.896-2-2-2zM16 18.5h-8v-5h1v-1.631c0-1.654 1.346-3 3-3s3 1.346 3 3v1.631h1v5z"></path>
</svg>
