<!-- Generated by IcoMoon.io -->
<svg version="1.1" xmlns="http://www.w3.org/2000/svg" width="24" height="24" viewBox="0 0 24 24">
<title>folder-settings</title>
<path fill="#2d2a2a" d="M14 13.5c0 1.105-0.895 2-2 2s-2-0.895-2-2c0-1.105 0.895-2 2-2s2 0.895 2 2z"></path>
<path fill="#2d2a2a" d="M20 6.5h-8l-1.447-1.895c-0.339-0.677-1.032-1.105-1.789-1.105h-5.764c-0.553 0-1 0.447-1 1v14c0 1.104 0.896 2 2 2h16c1.104 0 2-0.896 2-2v-10c0-1.104-0.896-2-2-2zM17 14.409h-1.492c-0.081 0.312-0.203 0.604-0.358 0.877l0.941 0.941-1.363 1.363-0.942-0.94c-0.272 0.155-0.564 0.276-0.876 0.357v1.493h-1.818v-1.492c-0.312-0.081-0.604-0.202-0.876-0.357l-0.942 0.94-1.363-1.363 0.941-0.941c-0.155-0.273-0.277-0.565-0.358-0.877h-1.494v-1.818h1.492c0.081-0.312 0.203-0.604 0.358-0.876l-0.941-0.942 1.363-1.363 0.942 0.941c0.272-0.156 0.564-0.277 0.876-0.358v-1.494h1.818v1.492c0.312 0.081 0.604 0.202 0.876 0.358l0.942-0.941 1.363 1.363-0.941 0.942c0.155 0.272 0.277 0.564 0.358 0.876h1.494v1.819z"></path>
</svg>
