<!-- Generated by IcoMoon.io -->
<svg version="1.1" xmlns="http://www.w3.org/2000/svg" width="24" height="24" viewBox="0 0 24 24">
<title>folders</title>
<path fill="#2d2a2a" d="M8.406 4.016l1.959 1.991h5.587c1.609-0.006 2.081 0.963 2.081 2.275v5.759c-0.034 1.147-0.941 1.897-2.081 1.928h-11.953c-1.25 0-1.984-0.594-1.984-1.616v-8.75c0-0.866 0.716-1.584 1.578-1.584h4.812z"></path>
<path fill="#2d2a2a" d="M5.937 19.969h14.062c1.103 0 2-0.897 2-2v-7.988c0-1.078-0.875-1.95-1.95-1.95h-0.050v9.938h-16.062c0 1.103 0.897 2 2 2z"></path>
</svg>
