<!-- Generated by IcoMoon.io -->
<svg version="1.1" xmlns="http://www.w3.org/2000/svg" width="24" height="24" viewBox="0 0 24 24">
<title>folder-refresh</title>
<path fill="#2d2a2a" d="M20 6.5h-8l-1.447-1.895c-0.339-0.677-1.032-1.105-1.789-1.105h-5.764c-0.553 0-1 0.447-1 1v14c0 1.104 0.896 2 2 2h16c1.104 0 2-0.896 2-2v-10c0-1.104-0.896-2-2-2zM12 18.5c-1.295 0-2.466-0.506-3.355-1.316l-1.645 1.316v-4h5l-1.767 1.414c0.495 0.367 1.104 0.586 1.767 0.586 1.302 0 2.401-0.838 2.816-2h2.083c-0.465 2.279-2.484 4-4.899 4zM17 12.5h-5l1.767-1.414c-0.495-0.367-1.104-0.586-1.767-0.586-1.302 0-2.401 0.838-2.816 2h-2.083c0.465-2.279 2.484-4 4.899-4 1.295 0 2.466 0.506 3.355 1.316l1.645-1.316v4z"></path>
</svg>
