<!-- Generated by IcoMoon.io -->
<svg version="1.1" xmlns="http://www.w3.org/2000/svg" width="24" height="24" viewBox="0 0 24 24">
<title>folder-view</title>
<path fill="#2d2a2a" d="M14 13c0 1.381-1.119 2.5-2.5 2.5s-2.5-1.119-2.5-2.5c0-1.381 1.119-2.5 2.5-2.5s2.5 1.119 2.5 2.5z"></path>
<path fill="#2d2a2a" d="M20 6.5h-8l-1.447-1.895c-0.339-0.677-1.032-1.105-1.789-1.105h-5.764c-0.553 0-1 0.447-1 1v14c0 1.104 0.896 2 2 2h16c1.104 0 2-0.896 2-2v-10c0-1.104-0.896-2-2-2zM16.773 18.272c-0.332 0.331-0.771 0.513-1.238 0.513s-0.906-0.182-1.237-0.512l-1.108-1.109c-0.523 0.214-1.092 0.336-1.69 0.336-2.481 0-4.5-2.018-4.5-4.5 0-2.481 2.019-4.5 4.5-4.5s4.5 2.019 4.5 4.5c0 0.598-0.123 1.167-0.335 1.689l1.108 1.109c0.682 0.681 0.682 1.792 0 2.474z"></path>
</svg>
