<!-- Generated by IcoMoon.io -->
<svg version="1.1" xmlns="http://www.w3.org/2000/svg" width="24" height="24" viewBox="0 0 24 24">
<title>folder-network</title>
<path fill="#2d2a2a" d="M20 5h-8l-1.447-1.895c-0.339-0.677-1.032-1.105-1.789-1.105h-5.764c-0.553 0-1 0.447-1 1v12c0 1.104 0.896 2 2 2h7v3h-3v2h8v-2h-3v-3h7c1.104 0 2-0.896 2-2v-8c0-1.104-0.896-2-2-2z"></path>
<path fill="#2d2a2a" d="M20 21c0 0.552-0.448 1-1 1s-1-0.448-1-1c0-0.552 0.448-1 1-1s1 0.448 1 1z"></path>
<path fill="#2d2a2a" d="M6 21c0 0.552-0.448 1-1 1s-1-0.448-1-1c0-0.552 0.448-1 1-1s1 0.448 1 1z"></path>
</svg>
