<!-- Generated by IcoMoon.io -->
<svg version="1.1" xmlns="http://www.w3.org/2000/svg" width="24" height="24" viewBox="0 0 24 24">
<title>format-shapes</title>
<path fill="#2d2a2a" d="M10.807 12.682h2.387l-1.193-3.495zM13.577 13.833h-3.196l-0.639 1.79h-1.492l3.111-8.183h1.279l3.068 8.183h-1.449zM18.35 5.65h1.833v-1.833h-1.833v1.833zM20.183 20.183v-1.833h-1.833v1.833h1.833zM16.56 18.35v-1.79h1.79v-9.12h-1.79v-1.79h-9.12v1.79h-1.79v9.12h1.79v1.79h9.12zM5.65 20.183v-1.833h-1.833v1.833h1.833zM3.817 3.817v1.833h1.833v-1.833h-1.833zM22.015 7.44h-1.833v9.12h1.833v5.455h-5.455v-1.833h-9.12v1.833h-5.455v-5.455h1.833v-9.12h-1.833v-5.455h5.455v1.833h9.12v-1.833h5.455v5.455z"></path>
</svg>
