<!-- Generated by IcoMoon.io -->
<svg version="1.1" xmlns="http://www.w3.org/2000/svg" width="22" height="24" viewBox="0 0 22 24">
<title>home2</title>
<path fill="#2d2a2a" d="M17.513 13.079v5.306c0 0.387-0.321 0.708-0.708 0.708h-4.245v-4.245h-2.83v4.245h-4.245c-0.387 0-0.708-0.321-0.708-0.708v-5.306c0-0.022 0.011-0.045 0.011-0.067l6.356-5.24 6.356 5.24c0.011 0.022 0.011 0.045 0.011 0.067zM19.978 12.316l-0.686 0.818c-0.055 0.067-0.144 0.11-0.232 0.122h-0.033c-0.088 0-0.166-0.022-0.232-0.077l-7.65-6.379-7.65 6.379c-0.077 0.055-0.166 0.088-0.265 0.077-0.088-0.011-0.177-0.055-0.232-0.122l-0.686-0.818c-0.122-0.144-0.1-0.376 0.045-0.497l7.948-6.622c0.464-0.387 1.216-0.387 1.68 0l2.698 2.255v-2.156c0-0.199 0.155-0.354 0.354-0.354h2.123c0.199 0 0.354 0.155 0.354 0.354v4.51l2.421 2.012c0.144 0.122 0.166 0.354 0.045 0.497z"></path>
</svg>
