<!-- Generated by IcoMoon.io -->
<svg version="1.1" xmlns="http://www.w3.org/2000/svg" width="24" height="24" viewBox="0 0 24 24">
<title>id-card</title>
<path fill="#2d2a2a" d="M5.937 19.969h14.062c1.103 0 2-0.897 2-2v-10.019c0-1.078-0.875-1.95-1.95-1.95h-0.050v11.969h-16.062c0 1.103 0.897 2 2 2z"></path>
<path fill="#2d2a2a" d="M16.109 3.969h-12.25c-1.025 0-1.859 0.834-1.859 1.859v8.372c0 1.025 0.834 1.859 1.859 1.859h12.247c1.025 0 1.859-0.834 1.859-1.859v-8.372c0.003-1.025-0.831-1.859-1.856-1.859zM4.291 13.269c0-1.713 1.078-2.791 2.791-2.791-1.028 0-1.859-0.834-1.859-1.859s0.834-1.859 1.859-1.859 1.859 0.834 1.859 1.859-0.834 1.859-1.859 1.859c1.713 0 2.791 1.078 2.791 2.791h-5.581zM15.959 13.269h-4.034v-1.859h4.034v1.859zM15.959 9.55h-4.034v-1.859h4.034v1.859z"></path>
</svg>
