<!-- Generated by IcoMoon.io -->
<svg version="1.1" xmlns="http://www.w3.org/2000/svg" width="24" height="24" viewBox="0 0 24 24">
<title>image</title>
<path fill="#2d2a2a" d="M20.016 2.016h-16.031c-1.078 0-1.969 0.891-1.969 1.969v16.031c0 1.078 0.891 1.969 1.969 1.969h16.031c1.078 0 1.969-0.891 1.969-1.969v-16.031c0-1.078-0.891-1.969-1.969-1.969zM20.016 13.031v6.984h-16.031v-16.031h16.031v9.047z"></path>
<path fill="#2d2a2a" d="M17.016 8.484c0 0.828-0.672 1.5-1.5 1.5s-1.5-0.672-1.5-1.5c0-0.828 0.672-1.5 1.5-1.5s1.5 0.672 1.5 1.5z"></path>
<path fill="#2d2a2a" d="M12.984 16.688l-3-3.703-3.984 5.016h12l-3-3.984z"></path>
</svg>
