<!-- Generated by IcoMoon.io -->
<svg version="1.1" xmlns="http://www.w3.org/2000/svg" width="24" height="24" viewBox="0 0 24 24">
<title>laptop</title>
<path fill="#2d2a2a" d="M18.588 17.353c0.906 0 1.639-0.741 1.639-1.647l0.008-9.059c0-0.906-0.741-1.647-1.647-1.647h-13.176c-0.906 0-1.647 0.741-1.647 1.647v9.059c0 0.906 0.741 1.647 1.647 1.647h-3.294c0 0.906 0.741 1.647 1.647 1.647h16.471c0.906 0 1.647-0.741 1.647-1.647h-3.294zM5.412 6.647h13.176v9.059h-13.176v-9.059zM12 18.176c-0.453 0-0.824-0.371-0.824-0.824s0.371-0.824 0.824-0.824 0.824 0.371 0.824 0.824-0.371 0.824-0.824 0.824z"></path>
</svg>
