<!-- Generated by IcoMoon.io -->
<svg version="1.1" xmlns="http://www.w3.org/2000/svg" width="24" height="24" viewBox="0 0 24 24">
<title>library-books</title>
<path fill="#2d2a2a" d="M5.016 6.984v-1.969h9.984v1.969h-9.984zM9 15v-2.016h6v2.016h-6zM5.016 11.016v-2.016h9.984v2.016h-9.984zM3.984 2.016c-1.078 0-1.969 0.891-1.969 1.969v12c0 1.078 0.891 2.016 1.969 2.016h12c1.078 0 2.016-0.938 2.016-2.016v-12c0-1.078-0.938-1.969-2.016-1.969h-12zM20.016 6v14.016h-14.016v1.969h14.016c1.078 0 1.969-0.891 1.969-1.969v-14.016h-1.969z"></path>
</svg>
