<!-- Generated by IcoMoon.io -->
<svg version="1.1" xmlns="http://www.w3.org/2000/svg" width="24" height="24" viewBox="0 0 24 24">
<title>live-help</title>
<path fill="#2d2a2a" d="M18.881 3.031h-13.8c-1.172 0-2.122 0.95-2.122 2.122v15.831l3.984-3.984h11.937c1.172 0 2.122-0.95 2.122-2.122v-9.725c0-1.172-0.95-2.122-2.122-2.122zM12.841 14.644c-0.244 0.253-0.547 0.381-0.912 0.381-0.363 0-0.666-0.128-0.903-0.381-0.241-0.253-0.359-0.566-0.359-0.941 0-0.381 0.119-0.7 0.359-0.953s0.541-0.381 0.903-0.381c0.363 0 0.669 0.128 0.912 0.381s0.366 0.572 0.366 0.953c0 0.375-0.122 0.687-0.366 0.941zM14.684 8.313c-0.106 0.234-0.237 0.453-0.394 0.653-0.159 0.2-0.325 0.394-0.503 0.581s-0.341 0.381-0.487 0.581c-0.15 0.2-0.266 0.416-0.353 0.637-0.087 0.225-0.116 0.481-0.087 0.769h-1.853c-0.047-0.325-0.034-0.622 0.034-0.891 0.072-0.269 0.175-0.516 0.309-0.747s0.284-0.441 0.453-0.631c0.169-0.191 0.328-0.375 0.481-0.553s0.281-0.35 0.381-0.516c0.1-0.169 0.15-0.341 0.15-0.525 0-0.297-0.087-0.522-0.266-0.675s-0.409-0.231-0.697-0.231c-0.269 0-0.506 0.063-0.709 0.188-0.206 0.125-0.403 0.281-0.597 0.475l-1.163-1.062c0.334-0.394 0.734-0.709 1.2-0.947 0.466-0.241 0.978-0.359 1.544-0.359 0.381 0 0.741 0.047 1.069 0.144 0.331 0.097 0.619 0.244 0.862 0.444s0.434 0.456 0.575 0.769c0.138 0.312 0.209 0.678 0.209 1.097-0.003 0.3-0.053 0.566-0.159 0.8z"></path>
</svg>
