<!-- Generated by IcoMoon.io -->
<svg version="1.1" xmlns="http://www.w3.org/2000/svg" width="24" height="24" viewBox="0 0 24 24">
<title>local-shipping</title>
<path fill="#2d2a2a" d="M17.251 17.703c0.738 0 1.313-0.574 1.313-1.313s-0.574-1.313-1.313-1.313-1.313 0.574-1.313 1.313 0.574 1.313 1.313 1.313zM18.564 9.826h-2.174v2.174h3.898zM6.749 17.703c0.738 0 1.313-0.574 1.313-1.313s-0.574-1.313-1.313-1.313-1.313 0.574-1.313 1.313 0.574 1.313 1.313 1.313zM19.016 8.513l2.626 3.487v4.39h-1.764c0 1.436-1.19 2.626-2.626 2.626s-2.626-1.19-2.626-2.626h-5.251c0 1.436-1.19 2.626-2.626 2.626s-2.626-1.19-2.626-2.626h-1.764v-9.641c0-0.944 0.821-1.764 1.764-1.764h12.267v3.528h2.626z"></path>
</svg>
