<!-- Generated by IcoMoon.io -->
<svg version="1.1" xmlns="http://www.w3.org/2000/svg" width="24" height="24" viewBox="0 0 24 24">
<title>mic-off</title>
<path fill="#2d2a2a" d="M3.858 3.044l17.616 17.616-1.332 1.332-4.392-4.392c-0.79 0.493-1.776 0.79-2.714 0.938v3.454h-2.072v-3.454c-3.454-0.493-6.316-3.454-6.316-7.056h1.776c0 3.158 2.665 5.329 5.576 5.329 0.839 0 1.678-0.197 2.418-0.543l-1.727-1.727c-0.197 0.049-0.444 0.099-0.691 0.099-1.727 0-3.158-1.431-3.158-3.158v-0.79l-6.316-6.316zM15.158 11.63l-6.316-6.267v-0.197c0-1.727 1.431-3.158 3.158-3.158s3.158 1.431 3.158 3.158v6.464zM19.352 11.482c0 1.234-0.345 2.418-0.938 3.454l-1.283-1.332c0.296-0.641 0.444-1.332 0.444-2.122h1.776z"></path>
</svg>
