<!-- Generated by IcoMoon.io -->
<svg version="1.1" xmlns="http://www.w3.org/2000/svg" width="24" height="24" viewBox="0 0 24 24">
<title>money-note</title>
<path fill="#2d2a2a" d="M19.987 7.025v10.972h-16.956c0 1.103 0.894 1.994 1.994 1.994h14.934c1.116 0 2.022-0.906 2.022-2.022v-8.95c0-1.103-0.894-1.994-1.994-1.994v0 0z"></path>
<path fill="#2d2a2a" d="M17.112 5.031h-14.272c-0.453 0-0.825 0.363-0.825 0.806v9.331c0 0.444 0.372 0.806 0.825 0.806h14.275c0.453 0 0.825-0.363 0.825-0.806v-9.331c0-0.444-0.372-0.806-0.828-0.806v0zM14.747 13.050c-0.303 0.444-0.397 0.95-0.297 1.369h-8.913c0.103-0.419 0.006-0.925-0.297-1.369-0.409-0.603-1.081-0.903-1.634-0.781v-3.756c0.428 0.103 0.95 0.009 1.403-0.288 0.631-0.413 0.938-1.087 0.791-1.634h8.388c-0.147 0.547 0.159 1.222 0.791 1.634 0.444 0.291 0.947 0.384 1.366 0.297v3.741c-0.544-0.1-1.194 0.197-1.597 0.787v0z"></path>
<path fill="#2d2a2a" d="M12.472 10.641c0 1.716-1.147 3.109-2.559 3.109s-2.559-1.391-2.559-3.109 1.147-3.109 2.559-3.109 2.559 1.394 2.559 3.109z"></path>
</svg>
