<!-- Generated by IcoMoon.io -->
<svg version="1.1" xmlns="http://www.w3.org/2000/svg" width="24" height="24" viewBox="0 0 24 24">
<title>more-vertical</title>
<path fill="#2d2a2a" d="M12 7.999c1.1 0 2.001-0.9 2.001-2.001s-0.9-2.001-2.001-2.001c-1.1 0-2.001 0.9-2.001 2.001s0.9 2.001 2.001 2.001v0zM12 9.999c-1.1 0-2.001 0.9-2.001 2.001s0.9 2.001 2.001 2.001c1.1 0 2.001-0.9 2.001-2.001s-0.9-2.001-2.001-2.001v0zM12 16.001c-1.1 0-2.001 0.9-2.001 2.001s0.9 2.001 2.001 2.001c1.1 0 2.001-0.9 2.001-2.001s-0.9-2.001-2.001-2.001v0z"></path>
</svg>
