<!-- Generated by IcoMoon.io -->
<svg version="1.1" xmlns="http://www.w3.org/2000/svg" width="24" height="24" viewBox="0 0 24 24">
<title>mouse</title>
<path fill="#2d2a2a" d="M13.905 5.762h0.952c1.575 0 2.857-1.282 2.857-2.857v-0.952h-1.905v0.952c0 0.525-0.428 0.952-0.952 0.952h-0.952c-1.575 0-2.857 1.282-2.857 2.857v0.952h-2.857c-1.051 0-1.905 0.854-1.905 1.905v6.667c0 3.151 2.563 5.714 5.714 5.714s5.714-2.563 5.714-5.714v-6.667c0-1.050-0.854-1.905-1.905-1.905h-2.857v-0.952c0-0.525 0.428-0.952 0.952-0.952zM11.048 9.571v2.857h-2.857v-2.857h2.857zM12 20.048c-2.1 0-3.81-1.71-3.81-3.81v-1.905h7.619v1.905c0 2.1-1.71 3.81-3.81 3.81zM15.81 9.571v2.857h-2.857v-2.857h2.857z"></path>
</svg>
