<!-- Generated by IcoMoon.io -->
<svg version="1.1" xmlns="http://www.w3.org/2000/svg" width="24" height="24" viewBox="0 0 24 24">
<title>notifications-add</title>
<path fill="#2d2a2a" d="M15.605 12.467v-1.824h-2.714v-2.714h-1.781v2.714h-2.714v1.824h2.714v2.714h1.781v-2.714h2.714zM18.234 15.902l1.908 1.908v0.975h-16.286v-0.975l1.908-1.908v-5.259c0-2.926 2.036-5.429 4.792-6.065v-0.636c0-0.806 0.636-1.442 1.442-1.442s1.442 0.636 1.442 1.442v0.636c2.757 0.636 4.792 3.138 4.792 6.065v5.259zM10.219 19.676h3.563c0 0.975-0.806 1.824-1.781 1.824s-1.781-0.848-1.781-1.824z"></path>
</svg>
