<!-- Generated by IcoMoon.io -->
<svg version="1.1" xmlns="http://www.w3.org/2000/svg" width="24" height="24" viewBox="0 0 24 24">
<title>package-upload</title>
<path fill="#2d2a2a" d="M15.315 2.373c-0.155-0.232-0.414-0.372-0.693-0.372h-3.333v5h7.112l-3.086-4.628z"></path>
<path fill="#2d2a2a" d="M17.955 11.999c0.283 0 0.561 0.029 0.833 0.068v-3.399h-16.666v9.166c0 0.46 0.373 0.833 0.833 0.833h9.233c-0.039-0.272-0.067-0.55-0.067-0.836 0-3.221 2.612-5.833 5.833-5.833z"></path>
<path fill="#2d2a2a" d="M9.622 2.002h-3.333c-0.279 0-0.538 0.139-0.693 0.372l-3.086 4.628h7.112v-5z"></path>
<path fill="#2d2a2a" d="M17.955 14.154l-3.922 3.922 1.178 1.178 1.911-1.91v4.655h1.667v-4.655l1.911 1.91 1.178-1.178z"></path>
</svg>
