<!-- Generated by IcoMoon.io -->
<svg version="1.1" xmlns="http://www.w3.org/2000/svg" width="24" height="24" viewBox="0 0 24 24">
<title>pictures</title>
<path fill="#2d2a2a" d="M6.906 19.969h13.094c1.103 0 2-0.897 2-2v-8.988c0-1.078-0.875-1.95-1.95-1.95h-0.050v10.938h-15.094c0 1.103 0.897 2 2 2z"></path>
<path fill="#2d2a2a" d="M16.709 6.15c0.075 0 0.134 0.059 0.134 0.134v8.484c0 0.075-0.059 0.134-0.134 0.134h-12.491c-0.075 0-0.134-0.059-0.134-0.134v-8.484c0-0.075 0.059-0.134 0.134-0.134h12.491zM16.709 4.025h-12.491c-1.25 0-2.259 1.012-2.259 2.259v8.484c0 1.25 1.012 2.259 2.259 2.259h12.487c1.25 0 2.259-1.013 2.259-2.259v-8.484c0.003-1.247-1.009-2.259-2.256-2.259v0z"></path>
<path fill="#2d2a2a" d="M11.581 11.55l-1.609-1.716-1.609 2.753-1.209-1.266-1.309 2.766h10.269l-2.347-6.372-2.184 3.834z"></path>
<path fill="#2d2a2a" d="M7.159 9.297c0.594 0 1.078-0.484 1.078-1.078s-0.484-1.078-1.078-1.078-1.078 0.484-1.078 1.078 0.484 1.078 1.078 1.078v0z"></path>
</svg>
