<!-- Generated by IcoMoon.io -->
<svg version="1.1" xmlns="http://www.w3.org/2000/svg" width="24" height="24" viewBox="0 0 24 24">
<title>piggy-bank</title>
<path fill="#2d2a2a" d="M15.048 6.286h-3.809c-0.241 0-0.484 0.015-0.734 0.047l-2.587-2.156c-0.227-0.19-0.542-0.229-0.811-0.105-0.267 0.126-0.439 0.395-0.439 0.69v3.592c-0.454 0.516-0.819 1.106-1.077 1.742h-1.971c-0.421 0-0.762 0.341-0.762 0.762v3.809c0 0.421 0.341 0.762 0.762 0.762h2.347c0.685 1.182 1.749 2.087 2.987 2.592v1.979h1.524v-1.574c0.251 0.031 0.505 0.050 0.762 0.050h3.809c0.259 0 0.512-0.022 0.762-0.053v1.576h1.524v-1.973c2.231-0.906 3.809-3.094 3.809-5.646 0-3.361-2.734-6.095-6.095-6.095zM8.19 10.857c-0.421 0-0.762-0.341-0.762-0.762 0-0.42 0.341-0.762 0.762-0.762s0.762 0.342 0.762 0.762c0 0.421-0.341 0.762-0.762 0.762zM15.809 9.333h-4.571v-1.524h4.571v1.524z"></path>
</svg>
