<!-- Generated by IcoMoon.io -->
<svg version="1.1" xmlns="http://www.w3.org/2000/svg" width="24" height="24" viewBox="0 0 24 24">
<title>podcast</title>
<path fill="#2d2a2a" d="M13 15h-2c-2.757 0-5 2.243-5 5v2h12v-2c0-2.757-2.243-5-5-5z"></path>
<path fill="#2d2a2a" d="M8.344 13.528c-1.25-1.758-1.1-4.211 0.475-5.783 1.754-1.756 4.609-1.756 6.363 0 1.574 1.572 1.725 4.025 0.476 5.783 0.629 0.258 1.212 0.606 1.733 1.028 1.701-2.526 1.438-5.992-0.794-8.227-2.534-2.535-6.658-2.533-9.193 0-2.231 2.234-2.495 5.7-0.794 8.227 0.522-0.422 1.105-0.769 1.734-1.028z"></path>
<path fill="#2d2a2a" d="M5.512 15.668c-0.977-1.353-1.512-2.967-1.512-4.668 0-2.137 0.833-4.146 2.344-5.657 3.119-3.119 8.193-3.119 11.313 0 2.809 2.81 3.079 7.2 0.83 10.324 0.444 0.563 0.803 1.195 1.060 1.878 3.406-3.923 3.254-9.886-0.476-13.617-3.898-3.898-10.243-3.898-14.141 0-1.889 1.889-2.93 4.402-2.93 7.072 0 2.434 0.872 4.729 2.453 6.546 0.256-0.683 0.614-1.316 1.059-1.878z"></path>
<path fill="#2d2a2a" d="M15 11c0 1.657-1.343 3-3 3s-3-1.343-3-3c0-1.657 1.343-3 3-3s3 1.343 3 3z"></path>
</svg>
