<!-- Generated by IcoMoon.io -->
<svg version="1.1" xmlns="http://www.w3.org/2000/svg" width="24" height="24" viewBox="0 0 24 24">
<title>printer</title>
<path fill="#2d2a2a" d="M7.028 2.531h9.981v2.497h-9.981v-2.497z"></path>
<path fill="#2d2a2a" d="M20.753 7.025h-17.469c-0.687 0-1.247 0.563-1.247 1.247v6.456c0 0.687 0.563 1.247 1.247 1.247h3.744v4.994h9.981v-4.991h3.744c0.687 0 1.247-0.563 1.247-1.247v-6.459c0-0.684-0.563-1.247-1.247-1.247v0zM4.531 10.769c-0.687 0-1.247-0.559-1.247-1.247s0.559-1.247 1.247-1.247 1.247 0.559 1.247 1.247c0 0.687-0.559 1.247-1.247 1.247zM15.762 19.722h-7.488v-6.241h7.488v6.241z"></path>
</svg>
