<!-- Generated by IcoMoon.io -->
<svg version="1.1" xmlns="http://www.w3.org/2000/svg" width="24" height="24" viewBox="0 0 24 24">
<title>radio-button-checked</title>
<path fill="#2d2a2a" d="M12 17.607c3.082 0 5.607-2.525 5.607-5.607s-2.525-5.607-5.607-5.607-5.607 2.525-5.607 5.607 2.525 5.607 5.607 5.607zM12 5.016c3.869 0 6.984 3.115 6.984 6.984s-3.115 6.984-6.984 6.984-6.984-3.115-6.984-6.984 3.115-6.984 6.984-6.984zM12 8.491c1.935 0 3.509 1.574 3.509 3.509s-1.574 3.509-3.509 3.509-3.509-1.574-3.509-3.509 1.574-3.509 3.509-3.509z"></path>
</svg>
