<!-- Generated by IcoMoon.io -->
<svg version="1.1" xmlns="http://www.w3.org/2000/svg" width="24" height="24" viewBox="0 0 24 24">
<title>replay-5</title>
<path fill="#2d2a2a" d="M12 5.7v-3.6l-4.5 4.5 4.5 4.5v-3.6c2.97 0 5.4 2.43 5.4 5.4s-2.43 5.4-5.4 5.4-5.4-2.43-5.4-5.4h-1.8c0 3.96 3.24 7.2 7.2 7.2s7.2-3.24 7.2-7.2-3.24-7.2-7.2-7.2zM10.83 13.71l0.18-1.98h2.16v0.63h-1.53l-0.090 0.81s0.090 0 0.090-0.090 0.090 0 0.090-0.090 0.090 0 0.18 0h0.18c0.18 0 0.36 0 0.45 0.090s0.27 0.18 0.36 0.27 0.18 0.27 0.27 0.45 0.090 0.36 0.090 0.54c0 0.18 0 0.36-0.090 0.45s-0.090 0.27-0.27 0.45-0.27 0.18-0.36 0.27-0.36 0.090-0.54 0.090c-0.18 0-0.36 0-0.45-0.090s-0.27-0.090-0.45-0.18-0.18-0.18-0.27-0.36-0.090-0.27-0.090-0.45h0.72c0 0.18 0.090 0.27 0.18 0.36s0.18 0.090 0.36 0.090c0.090 0 0.18 0 0.27-0.090l0.18-0.18s0.090-0.18 0.090-0.27v-0.54l-0.090-0.18-0.18-0.18s-0.18-0.090-0.27-0.090h-0.18s-0.090 0-0.18 0.090-0.090 0-0.090 0.090-0.090 0.090-0.090 0.090h-0.63z"></path>
</svg>
