<!-- Generated by IcoMoon.io -->
<svg version="1.1" xmlns="http://www.w3.org/2000/svg" width="24" height="24" viewBox="0 0 24 24">
<title>replay-30</title>
<path fill="#2d2a2a" d="M12 5.7v-3.6l-4.5 4.5 4.5 4.5v-3.6c2.97 0 5.4 2.43 5.4 5.4s-2.43 5.4-5.4 5.4-5.4-2.43-5.4-5.4h-1.8c0 3.96 3.24 7.2 7.2 7.2s7.2-3.24 7.2-7.2-3.24-7.2-7.2-7.2zM9.84 13.35h0.36c0.18 0 0.36-0.090 0.45-0.18s0.18-0.18 0.18-0.36v-0.18s-0.090-0.090-0.090-0.18-0.090-0.090-0.18-0.090h-0.45s-0.090 0.090-0.18 0.090-0.090 0.090-0.090 0.18v0.18h-0.9c0-0.18 0-0.27 0.090-0.45s0.18-0.27 0.27-0.36 0.27-0.18 0.36-0.18 0.36-0.090 0.45-0.090c0.18 0 0.36 0 0.54 0.090s0.27 0.090 0.45 0.18 0.18 0.18 0.27 0.36 0.090 0.27 0.090 0.45v0.27s-0.090 0.18-0.090 0.27-0.090 0.18-0.18 0.18-0.18 0.090-0.27 0.18c0.18 0.090 0.36 0.18 0.45 0.36s0.18 0.36 0.18 0.54c0 0.18 0 0.36-0.090 0.45s-0.18 0.27-0.27 0.36-0.27 0.18-0.45 0.18-0.36 0.090-0.54 0.090c-0.18 0-0.36 0-0.45-0.090s-0.27-0.090-0.45-0.18-0.18-0.18-0.27-0.36-0.090-0.36-0.090-0.54h0.72v0.18s0.090 0.090 0.090 0.18 0.090 0.090 0.18 0.090h0.45s0.090-0.090 0.18-0.090 0.090-0.090 0.090-0.18v-0.45s-0.090-0.090-0.090-0.18-0.090-0.090-0.18-0.090h-0.54v-0.63zM14.97 13.98c0 0.27 0 0.54-0.090 0.72l-0.27 0.54s-0.27 0.27-0.45 0.27-0.36 0.090-0.54 0.090-0.36 0-0.54-0.090-0.27-0.18-0.45-0.27-0.18-0.27-0.27-0.54-0.090-0.45-0.090-0.72v-0.63c0-0.27 0-0.54 0.090-0.72l0.27-0.54s0.27-0.27 0.45-0.27 0.36-0.090 0.54-0.090 0.36 0 0.54 0.090 0.27 0.18 0.45 0.27 0.18 0.27 0.27 0.54 0.090 0.45 0.090 0.72v0.63zM14.25 13.26v-0.45c0-0.090-0.090-0.18-0.090-0.27s-0.090-0.090-0.18-0.18-0.18-0.090-0.27-0.090-0.18 0-0.27 0.090l-0.18 0.18s-0.090 0.18-0.090 0.27v1.8s0.090 0.18 0.090 0.27 0.090 0.090 0.18 0.18 0.18 0.090 0.27 0.090 0.18 0 0.27-0.090l0.18-0.18s0.090-0.18 0.090-0.27v-1.35z"></path>
</svg>
