<!-- Generated by IcoMoon.io -->
<svg version="1.1" xmlns="http://www.w3.org/2000/svg" width="24" height="24" viewBox="0 0 24 24">
<title>restore</title>
<path fill="#2d2a2a" d="M12.487 8.237h1.417v3.984l3.32 1.992-0.708 1.151-4.029-2.435v-4.693zM13.417 3.5c4.693 0 8.5 3.807 8.5 8.5s-3.807 8.5-8.5 8.5c-2.346 0-4.427-0.93-5.977-2.479l1.328-1.372c1.195 1.195 2.833 1.948 4.648 1.948 3.674 0 6.641-2.922 6.641-6.596s-2.966-6.596-6.641-6.596-6.596 2.922-6.596 6.596h2.833l-3.807 3.807-0.089-0.133-3.674-3.674h2.833c0-4.693 3.807-8.5 8.5-8.5z"></path>
</svg>
