<!-- Generated by IcoMoon.io -->
<svg version="1.1" xmlns="http://www.w3.org/2000/svg" width="24" height="24" viewBox="0 0 24 24">
<title>search</title>
<path fill="#2d2a2a" d="M16.503 14.964h-0.795l-1.186-1.186c1.067-1.237 1.717-2.861 1.717-4.636 0-3.931-3.187-7.117-7.117-7.117s-7.117 3.187-7.117 7.117c0 3.931 3.187 7.117 7.117 7.117 1.74 0 3.333-0.624 4.57-1.66l-0.011 0.009 1.186 1.186v0.795l5.457 5.386 1.673-1.684zM9.172 13.992c-2.621 0-4.745-2.124-4.745-4.745s2.124-4.745 4.745-4.745c2.621 0 4.745 2.124 4.745 4.745v0c0 2.621-2.124 4.745-4.745 4.745v0z"></path>
</svg>
