<!-- Generated by IcoMoon.io -->
<svg version="1.1" xmlns="http://www.w3.org/2000/svg" width="24" height="24" viewBox="0 0 24 24">
<title>send</title>
<path fill="#2d2a2a" d="M22.657 1.135c0.258 0.184 0.381 0.479 0.331 0.786l-3.143 18.857c-0.037 0.233-0.184 0.43-0.393 0.552-0.111 0.061-0.246 0.098-0.381 0.098-0.098 0-0.196-0.025-0.295-0.061l-5.561-2.271-2.971 3.622c-0.147 0.184-0.368 0.282-0.602 0.282-0.086 0-0.184-0.012-0.27-0.049-0.307-0.111-0.516-0.405-0.516-0.737v-4.285l10.607-13.001-13.124 11.356-4.849-1.989c-0.282-0.111-0.466-0.368-0.491-0.675-0.012-0.295 0.135-0.577 0.393-0.724l20.429-11.786c0.123-0.074 0.258-0.111 0.393-0.111 0.16 0 0.319 0.049 0.442 0.135z"></path>
</svg>
