<!-- Generated by IcoMoon.io -->
<svg version="1.1" xmlns="http://www.w3.org/2000/svg" width="24" height="24" viewBox="0 0 24 24">
<title>settings-vertical</title>
<path fill="#2d2a2a" d="M18.75 10.875h0.281c0.464 0 0.843-0.38 0.843-0.843v-2.812c0-0.464-0.38-0.843-0.843-0.843h-0.281v-3.375h-2.25v3.375h-0.281c-0.464 0-0.843 0.38-0.843 0.843v2.812c0 0.464 0.38 0.843 0.843 0.843h0.281v10.125h2.25v-10.125zM16.5 7.5h2.25v2.25h-2.25v-2.25zM13.407 17.625c0.464 0 0.843-0.38 0.843-0.843v-2.812c0-0.464-0.38-0.843-0.843-0.843h-0.281v-10.125h-2.25v10.125h-0.281c-0.464 0-0.843 0.38-0.843 0.843v2.812c0 0.464 0.38 0.843 0.843 0.843h0.281v3.375h2.25v-3.375h0.281zM10.875 14.25h2.25v2.25h-2.25v-2.25zM7.781 10.875c0.464 0 0.843-0.38 0.843-0.843v-2.812c0-0.464-0.38-0.843-0.843-0.843h-0.281v-3.375h-2.25v3.375h-0.281c-0.464 0-0.843 0.38-0.843 0.843v2.812c0 0.464 0.38 0.843 0.843 0.843h0.281v10.125h2.25v-10.125h0.281zM5.25 7.5h2.25v2.25h-2.25v-2.25z"></path>
</svg>
