<!-- Generated by IcoMoon.io -->
<svg version="1.1" xmlns="http://www.w3.org/2000/svg" width="24" height="24" viewBox="0 0 24 24">
<title>settings</title>
<path fill="#2d2a2a" d="M12 15.521c1.925 0 3.521-1.596 3.521-3.521s-1.596-3.521-3.521-3.521-3.521 1.596-3.521 3.521 1.596 3.521 3.521 3.521zM19.465 12.986l2.113 1.644c0.188 0.141 0.235 0.423 0.094 0.657l-2.019 3.475c-0.141 0.235-0.375 0.282-0.61 0.188l-2.488-0.986c-0.516 0.375-1.080 0.751-1.69 0.986l-0.375 2.629c-0.047 0.235-0.235 0.423-0.469 0.423h-4.037c-0.235 0-0.423-0.188-0.469-0.423l-0.375-2.629c-0.61-0.235-1.174-0.564-1.69-0.986l-2.488 0.986c-0.235 0.094-0.469 0.047-0.61-0.188l-2.019-3.475c-0.141-0.235-0.094-0.516 0.094-0.657l2.113-1.644c-0.047-0.328-0.047-0.657-0.047-0.986s0-0.657 0.047-0.986l-2.113-1.644c-0.188-0.141-0.235-0.423-0.094-0.657l2.019-3.475c0.141-0.235 0.375-0.282 0.61-0.188l2.488 0.986c0.516-0.375 1.080-0.751 1.69-0.986l0.375-2.629c0.047-0.235 0.235-0.423 0.469-0.423h4.037c0.235 0 0.423 0.188 0.469 0.423l0.375 2.629c0.61 0.235 1.174 0.564 1.69 0.986l2.488-0.986c0.235-0.094 0.469-0.047 0.61 0.188l2.019 3.475c0.141 0.235 0.094 0.516-0.094 0.657l-2.113 1.644c0.047 0.328 0.047 0.657 0.047 0.986s0 0.657-0.047 0.986z"></path>
</svg>
