<!-- Generated by IcoMoon.io -->
<svg version="1.1" xmlns="http://www.w3.org/2000/svg" width="24" height="24" viewBox="0 0 24 24">
<title>shield</title>
<path fill="#2d2a2a" d="M19.383 2.051c-0.375-0.155-0.804-0.069-1.090 0.217-0.985 0.985-1.956 1.484-2.885 1.484-1.532 0-2.602-1.368-2.608-1.377-0.188-0.25-0.483-0.396-0.796-0.398-0.275-0.021-0.609 0.145-0.801 0.393-0.010 0.014-1.079 1.382-2.61 1.382-0.93 0-1.9-0.499-2.886-1.484-0.287-0.286-0.717-0.373-1.090-0.217-0.373 0.154-0.617 0.519-0.617 0.924v11c0 3.808 6.763 7.479 7.534 7.885 0.146 0.077 0.306 0.115 0.466 0.115s0.32-0.038 0.466-0.115c0.771-0.407 7.534-4.078 7.534-7.885v-11c0-0.405-0.244-0.77-0.617-0.924zM16 12.975h-3v3h-2v-3h-3v-2h3v-3h2v3h3v2z"></path>
</svg>
