<!-- Generated by IcoMoon.io -->
<svg version="1.1" xmlns="http://www.w3.org/2000/svg" width="24" height="24" viewBox="0 0 24 24">
<title>sort</title>
<path fill="#2d2a2a" d="M17.006 14.025c0 0.178-0.075 0.347-0.2 0.475l-4.728 4.728c-0.128 0.128-0.294 0.2-0.475 0.2s-0.347-0.075-0.475-0.2l-4.725-4.728c-0.128-0.128-0.2-0.294-0.2-0.475 0-0.369 0.306-0.675 0.675-0.675h9.456c0.366 0 0.672 0.306 0.672 0.675v0zM17.006 9.975c0 0.369-0.306 0.675-0.675 0.675h-9.453c-0.369 0-0.675-0.306-0.675-0.675 0-0.178 0.075-0.347 0.2-0.475l4.728-4.728c0.128-0.128 0.294-0.2 0.475-0.2s0.347 0.075 0.475 0.2l4.725 4.728c0.128 0.125 0.2 0.294 0.2 0.475v0z"></path>
</svg>
