<!-- Generated by IcoMoon.io -->
<svg version="1.1" xmlns="http://www.w3.org/2000/svg" width="24" height="24" viewBox="0 0 24 24">
<title>store</title>
<path fill="#2d2a2a" d="M21.706 10.761l-2.667-6.222c-0.14-0.326-0.461-0.539-0.817-0.539h-12.444c-0.356 0-0.677 0.212-0.817 0.539l-2.667 6.222c-0.118 0.274-0.090 0.589 0.075 0.839s0.444 0.4 0.742 0.4h0.889v7.111c0 0.492 0.398 0.889 0.889 0.889h8.889v-6.222h3.556v6.222h1.778c0.491 0 0.889-0.397 0.889-0.889v-7.111h0.889c0.299 0 0.578-0.149 0.742-0.399s0.193-0.566 0.075-0.84zM11.111 17.333h-4.444v-3.556h4.444v3.556zM19.54 10.222h-2.426l-1.269-4.444h1.791l1.904 4.444zM8.734 10.222l1.269-4.444h1.108v4.444h-2.377zM12.889 5.778h1.108l1.269 4.444h-2.377v-4.444zM6.364 5.778h1.791l-1.269 4.444h-2.426l1.904-4.444z"></path>
</svg>
