<!-- Generated by IcoMoon.io -->
<svg version="1.1" xmlns="http://www.w3.org/2000/svg" width="24" height="24" viewBox="0 0 24 24">
<title>street-signs</title>
<path fill="#2d2a2a" d="M21.912 5.753c0.144 0.144 0.144 0.369 0 0.513l-2.044 1.419c-0.2 0.2-0.481 0.312-0.759 0.312h-14.375c-0.391 0-0.716-0.325-0.716-0.716v-2.544c0-0.391 0.325-0.716 0.716-0.716h5.834v-1.306c0-0.391 0.325-0.716 0.716-0.716h1.428c0.391 0 0.716 0.325 0.716 0.716v1.309h5.591c0.278 0 0.559 0.113 0.759 0.312l2.134 1.416z"></path>
<path fill="#2d2a2a" d="M10.572 15.978h2.856v5.309c0 0.391-0.325 0.716-0.716 0.716h-1.428c-0.391 0-0.716-0.325-0.716-0.716l0.003-5.309z"></path>
<path fill="#2d2a2a" d="M20.294 11.041c0.391 0 0.716 0.325 0.716 0.716v2.544c0 0.391-0.325 0.716-0.716 0.716h-14.25c-0.278 0-0.559-0.112-0.759-0.312l-2.2-1.419c-0.144-0.144-0.144-0.369 0-0.513l2.2-1.419c0.2-0.2 0.481-0.312 0.759-0.312h4.528v-2.019h2.856v2.019h6.866z"></path>
</svg>
