<!-- Generated by IcoMoon.io -->
<svg version="1.1" xmlns="http://www.w3.org/2000/svg" width="21" height="24" viewBox="0 0 21 24">
<title>tag</title>
<path fill="#2d2a2a" d="M6.961 7.296c0-0.763-0.613-1.376-1.376-1.376s-1.376 0.613-1.376 1.376 0.613 1.376 1.376 1.376 1.376-0.613 1.376-1.376zM18.434 13.489c0 0.365-0.151 0.721-0.398 0.968l-5.28 5.291c-0.258 0.247-0.613 0.398-0.979 0.398s-0.721-0.151-0.968-0.398l-7.688-7.699c-0.548-0.537-0.979-1.581-0.979-2.344v-4.473c0-0.753 0.623-1.376 1.376-1.376h4.473c0.763 0 1.806 0.43 2.355 0.979l7.688 7.677c0.247 0.258 0.398 0.613 0.398 0.979z"></path>
</svg>
