<!-- Generated by IcoMoon.io -->
<svg version="1.1" xmlns="http://www.w3.org/2000/svg" width="26" height="24" viewBox="0 0 26 24">
<title>tags</title>
<path fill="#2d2a2a" d="M7.132 7.007c0-0.81-0.651-1.461-1.461-1.461s-1.461 0.651-1.461 1.461 0.651 1.461 1.461 1.461 1.461-0.651 1.461-1.461zM19.309 13.581c0 0.388-0.16 0.765-0.422 1.027l-5.604 5.615c-0.274 0.262-0.651 0.422-1.039 0.422s-0.765-0.16-1.027-0.422l-8.16-8.172c-0.582-0.57-1.039-1.678-1.039-2.488v-4.748c0-0.799 0.662-1.461 1.461-1.461h4.748c0.81 0 1.917 0.456 2.499 1.039l8.16 8.148c0.262 0.274 0.422 0.651 0.422 1.039zM23.692 13.581c0 0.388-0.16 0.765-0.422 1.027l-5.604 5.615c-0.274 0.262-0.651 0.422-1.039 0.422-0.593 0-0.89-0.274-1.278-0.673l5.364-5.364c0.262-0.262 0.422-0.639 0.422-1.027s-0.16-0.765-0.422-1.039l-8.16-8.148c-0.582-0.582-1.689-1.039-2.499-1.039h2.556c0.81 0 1.917 0.456 2.499 1.039l8.16 8.148c0.262 0.274 0.422 0.651 0.422 1.039z"></path>
</svg>
