<!-- Generated by IcoMoon.io -->
<svg version="1.1" xmlns="http://www.w3.org/2000/svg" width="24" height="24" viewBox="0 0 24 24">
<title>thumb-down</title>
<path fill="#2d2a2a" d="M14.169 5.072h-7.406c-0.684 0-1.266 0.412-1.512 1.003l-2.484 5.803c-0.075 0.191-0.116 0.387-0.116 0.6v1.647c0 0.906 0.741 1.647 1.647 1.647h5.191l-0.781 3.759-0.025 0.262c0 0.337 0.141 0.65 0.363 0.872l0.872 0.862 5.422-5.422c0.297-0.297 0.478-0.706 0.478-1.159v-8.228c-0.003-0.906-0.744-1.647-1.647-1.647v0zM17.459 5.072v9.872h3.291v-9.872h-3.291z"></path>
</svg>
