<!-- Generated by IcoMoon.io -->
<svg version="1.1" xmlns="http://www.w3.org/2000/svg" width="24" height="24" viewBox="0 0 24 24">
<title>thumb-up</title>
<path fill="#2d2a2a" d="M2.886 19.786h3.314v-9.943h-3.314v9.943zM21.114 10.671c0-0.911-0.746-1.657-1.657-1.657h-5.228l0.787-3.787 0.025-0.265c0-0.34-0.141-0.655-0.365-0.878l-0.878-0.87-5.452 5.46c-0.307 0.298-0.489 0.713-0.489 1.168v8.286c0 0.911 0.746 1.657 1.657 1.657h7.457c0.688 0 1.276-0.414 1.525-1.011l2.502-5.841c0.075-0.191 0.116-0.389 0.116-0.605v-1.657z"></path>
</svg>
