<!-- Generated by IcoMoon.io -->
<svg version="1.1" xmlns="http://www.w3.org/2000/svg" width="26" height="24" viewBox="0 0 26 24">
<title>trademark</title>
<path fill="#2d2a2a" d="M11.91 7.179v1.175c0 0.171-0.151 0.311-0.321 0.311h-2.993v8.156c0 0.181-0.141 0.321-0.311 0.321h-1.356c-0.181 0-0.321-0.141-0.321-0.321v-8.156h-2.983c-0.181 0-0.321-0.141-0.321-0.311v-1.175c0-0.181 0.141-0.321 0.321-0.321h7.965c0.171 0 0.321 0.141 0.321 0.321zM22.337 7.148l0.773 9.653c0.010 0.090-0.020 0.171-0.080 0.241-0.060 0.060-0.141 0.1-0.231 0.1h-1.346c-0.161 0-0.301-0.131-0.311-0.291l-0.462-5.906-1.898 4.269c-0.050 0.121-0.161 0.191-0.291 0.191h-1.205c-0.121 0-0.231-0.070-0.291-0.191l-1.888-4.289-0.452 5.926c-0.010 0.161-0.151 0.291-0.311 0.291h-1.356c-0.090 0-0.171-0.040-0.231-0.1-0.060-0.070-0.090-0.151-0.090-0.241l0.784-9.653c0.010-0.161 0.151-0.291 0.311-0.291h1.426c0.131 0 0.241 0.080 0.291 0.191l2.21 5.223c0.070 0.161 0.141 0.342 0.201 0.512 0.070-0.171 0.131-0.352 0.201-0.512l2.22-5.223c0.050-0.11 0.161-0.191 0.291-0.191h1.416c0.171 0 0.311 0.131 0.321 0.291z"></path>
</svg>
