<!-- Generated by IcoMoon.io -->
<svg version="1.1" xmlns="http://www.w3.org/2000/svg" width="24" height="24" viewBox="0 0 24 24">
<title>update</title>
<path fill="#2d2a2a" d="M12.531 7.96v4.291l3.527 2.145-0.715 1.239-4.338-2.622v-5.053h1.525zM21.159 10.105h-6.912l2.812-2.86c-2.765-2.765-7.293-2.86-10.059-0.096s-2.765 7.151 0 9.915 7.293 2.765 10.059 0c1.383-1.383 2.050-2.956 2.050-4.958h2.050c0 2.002-0.858 4.624-2.67 6.388-3.575 3.527-9.391 3.527-12.966 0s-3.575-9.248 0-12.775 9.296-3.527 12.871 0l2.765-2.86v7.245z"></path>
</svg>
