<!-- Generated by IcoMoon.io -->
<svg version="1.1" xmlns="http://www.w3.org/2000/svg" width="24" height="24" viewBox="0 0 24 24">
<title>users</title>
<path fill="#2d2a2a" d="M15.922 13.094c1.681 0 3.047-1.366 3.047-3.047s-1.366-3.047-3.047-3.047-3.047 1.366-3.047 3.047 1.366 3.047 3.047 3.047z"></path>
<path fill="#2d2a2a" d="M8.984 11.078c1.681 0 3.047-1.366 3.047-3.047s-1.366-3.047-3.047-3.047-3.047 1.366-3.047 3.047 1.366 3.047 3.047 3.047z"></path>
<path fill="#2d2a2a" d="M15.922 13.606c-3.588 0-6.094 1.878-6.094 4.569v0.762h12.188v-0.762c0-2.691-2.506-4.569-6.094-4.569z"></path>
<path fill="#2d2a2a" d="M7.891 18.175c0-0.978 0.225-1.903 0.669-2.75 0.425-0.809 1.031-1.512 1.806-2.094 0.166-0.125 0.338-0.241 0.519-0.353-0.597-0.109-1.231-0.166-1.9-0.166-4.122 0-7 2.159-7 5.25v0.875h5.906v-0.762z"></path>
</svg>
