<!-- Generated by IcoMoon.io -->
<svg version="1.1" xmlns="http://www.w3.org/2000/svg" width="24" height="24" viewBox="0 0 24 24">
<title>user-close</title>
<path fill="#2d2a2a" d="M10.060 14.013c1.886 0 3.42-1.534 3.42-3.42s-1.534-3.42-3.42-3.42-3.42 1.534-3.42 3.42c0 1.886 1.534 3.42 3.42 3.42z"></path>
<path fill="#2d2a2a" d="M10.060 14.868c-4.028 0-6.841 2.11-6.841 5.131v0.855h13.682v-0.855c0-3.021-2.813-5.131-6.841-5.131z"></path>
<path fill="#2d2a2a" d="M21.781 4.356l-1.209-1.209-1.961 1.961-1.961-1.961-1.209 1.209 1.961 1.961-1.961 1.961 1.209 1.209 1.961-1.961 1.961 1.961 1.209-1.209-1.961-1.961z"></path>
</svg>
