<!-- Generated by IcoMoon.io -->
<svg version="1.1" xmlns="http://www.w3.org/2000/svg" width="24" height="24" viewBox="0 0 24 24">
<title>user-lock</title>
<path fill="#2d2a2a" d="M21.167 5.333c0-1.838-1.495-3.333-3.333-3.333s-3.333 1.495-3.333 3.333c-0.461 0-0.833 0.372-0.833 0.833v5.833c0 0.461 0.372 0.833 0.833 0.833h6.667c0.461 0 0.833-0.372 0.833-0.833v-5.833c0-0.461-0.372-0.833-0.833-0.833zM17.833 3.667c0.919 0 1.667 0.748 1.667 1.667h-3.333c0-0.918 0.747-1.667 1.667-1.667zM20.333 11.167h-5v-4.167h5v4.167z"></path>
<path fill="#2d2a2a" d="M18.667 8.667c0 0.46-0.373 0.833-0.833 0.833s-0.833-0.373-0.833-0.833c0-0.46 0.373-0.833 0.833-0.833s0.833 0.373 0.833 0.833z"></path>
<path fill="#2d2a2a" d="M8.667 15.333c1.838 0 3.333-1.495 3.333-3.333s-1.495-3.333-3.333-3.333-3.333 1.496-3.333 3.333c0 1.838 1.495 3.333 3.333 3.333z"></path>
<path fill="#2d2a2a" d="M8.667 16.167c-3.925 0-6.667 2.057-6.667 5v0.833h13.333v-0.833c0-2.943-2.742-5-6.667-5z"></path>
</svg>
