<!-- Generated by IcoMoon.io -->
<svg version="1.1" xmlns="http://www.w3.org/2000/svg" width="24" height="24" viewBox="0 0 24 24">
<title>user-block</title>
<path fill="#2d2a2a" d="M17 2c-2.757 0-5 2.243-5 5s2.243 5 5 5 5-2.242 5-5c0-2.757-2.242-5-5-5zM17 3.667c0.616 0 1.188 0.18 1.683 0.472l-4.545 4.545c-0.292-0.496-0.472-1.068-0.472-1.683 0-1.838 1.495-3.333 3.333-3.333zM17 10.333c-0.616 0-1.187-0.179-1.683-0.472l4.543-4.543c0.293 0.495 0.472 1.066 0.472 1.682 0 1.838-1.495 3.333-3.333 3.333z"></path>
<path fill="#2d2a2a" d="M8.667 15.333c1.838 0 3.333-1.495 3.333-3.333s-1.495-3.333-3.333-3.333-3.333 1.495-3.333 3.333c0 1.838 1.495 3.333 3.333 3.333z"></path>
<path fill="#2d2a2a" d="M8.667 16.167c-3.925 0-6.667 2.056-6.667 5v0.833h13.333v-0.833c0-2.944-2.742-5-6.667-5z"></path>
</svg>
