<!-- Generated by IcoMoon.io -->
<svg version="1.1" xmlns="http://www.w3.org/2000/svg" width="24" height="24" viewBox="0 0 24 24">
<title>user-timeout</title>
<path fill="#2d2a2a" d="M8.666 15.334c1.839 0 3.334-1.495 3.334-3.334s-1.495-3.334-3.334-3.334-3.334 1.495-3.334 3.334 1.495 3.334 3.334 3.334z"></path>
<path fill="#2d2a2a" d="M8.666 16.167c-3.925 0-6.668 2.056-6.668 5.001v0.833h13.335v-0.833c0-2.945-2.742-5.001-6.668-5.001z"></path>
<path fill="#2d2a2a" d="M17.001 1.985c-2.758 0-5.001 2.244-5.001 5.001s2.243 5.001 5.001 5.001 5.001-2.244 5.001-5.001-2.243-5.001-5.001-5.001zM19.501 7.819h-3.334v-4.167h1.667v2.5h1.667v1.667z"></path>
</svg>
