<!-- Generated by IcoMoon.io -->
<svg version="1.1" xmlns="http://www.w3.org/2000/svg" width="24" height="24" viewBox="0 0 24 24">
<title>user-refresh</title>
<path fill="#2d2a2a" d="M8.666 16.167c-3.925 0-6.667 2.056-6.667 5v0.833h13.333v-0.833c0-2.944-2.742-5-6.667-5z"></path>
<path fill="#2d2a2a" d="M8.837 8.684c-0.058-0.003-0.113-0.018-0.171-0.018-1.838 0-3.333 1.495-3.333 3.333s1.495 3.333 3.333 3.333c1.332 0 2.477-0.791 3.009-1.924-1.427-1.186-2.452-2.839-2.838-4.725z"></path>
<path fill="#2d2a2a" d="M17 10.333c-0.897 0-1.72-0.367-2.343-0.991l1.509-1.509h-4.167v4.167l1.47-1.47c0.932 0.928 2.204 1.47 3.53 1.47 2.757 0 5-2.242 5-5h-1.667c0 1.838-1.495 3.333-3.333 3.333z"></path>
<path fill="#2d2a2a" d="M20.532 3.468c-0.933-0.938-2.183-1.467-3.532-1.467-2.757 0-5 2.242-5 5h1.667c0-1.838 1.495-3.333 3.333-3.333 0.898 0 1.721 0.367 2.343 0.99l-1.51 1.51h4.167v-4.167l-1.467 1.467z"></path>
</svg>
