<!-- Generated by IcoMoon.io -->
<svg version="1.1" xmlns="http://www.w3.org/2000/svg" width="24" height="24" viewBox="0 0 24 24">
<title>user-search</title>
<path fill="#2d2a2a" d="M21.512 11.167l-2.706-2.706c0.437-0.658 0.694-1.446 0.694-2.294 0-2.298-1.869-4.167-4.167-4.167s-4.167 1.869-4.167 4.167 1.869 4.167 4.167 4.167c0.848 0 1.636-0.258 2.294-0.694l2.706 2.706 1.178-1.178zM12.833 6.167c0-1.378 1.122-2.5 2.5-2.5s2.5 1.122 2.5 2.5-1.122 2.5-2.5 2.5-2.5-1.122-2.5-2.5z"></path>
<path fill="#2d2a2a" d="M8.667 15.333c1.838 0 3.333-1.495 3.333-3.333s-1.495-3.333-3.333-3.333-3.333 1.496-3.333 3.333c0 1.838 1.495 3.333 3.333 3.333z"></path>
<path fill="#2d2a2a" d="M8.667 16.167c-3.925 0-6.667 2.057-6.667 5v0.833h13.333v-0.833c0-2.943-2.742-5-6.667-5z"></path>
</svg>
