<!-- Generated by IcoMoon.io -->
<svg version="1.1" xmlns="http://www.w3.org/2000/svg" width="24" height="24" viewBox="0 0 24 24">
<title>zoom-in</title>
<path fill="#2d2a2a" d="M21.414 18.585l-4.527-4.527c0.72-1.217 1.113-2.607 1.113-4.058 0-2.137-0.833-4.146-2.344-5.657-1.51-1.512-3.519-2.343-5.656-2.343s-4.146 0.831-5.656 2.343c-1.511 1.511-2.344 3.52-2.344 5.657s0.833 4.145 2.344 5.655c1.51 1.513 3.519 2.345 5.656 2.345 1.452 0 2.841-0.394 4.059-1.114l4.527 4.526c0.377 0.379 0.88 0.588 1.414 0.588s1.037-0.209 1.414-0.586c0.378-0.379 0.586-0.879 0.586-1.414s-0.208-1.037-0.586-1.415zM14 11h-3v3h-2v-3h-3v-2h3v-3h2v3h3v2z"></path>
</svg>
