<!-- Generated by IcoMoon.io -->
<svg version="1.1" xmlns="http://www.w3.org/2000/svg" width="24" height="24" viewBox="0 0 24 24">
<title>zoom-area-in</title>
<path fill="#2d2a2a" d="M6.133 13.668c0-4.146 3.359-7.504 7.504-7.504 1.543 0 2.977 0.467 4.169 1.266v-3.767c0-0.92-0.748-1.668-1.668-1.668h-12.507c-0.92 0-1.668 0.748-1.668 1.668v12.507c0 0.919 0.748 1.668 1.668 1.668h3.767c-0.799-1.193-1.266-2.627-1.266-4.169z"></path>
<path fill="#2d2a2a" d="M14.471 11.166h-1.668v1.668h-1.668v1.668h1.668v1.668h1.668v-1.668h1.668v-1.668h-1.668z"></path>
<path fill="#2d2a2a" d="M22.006 20.296l-3.468-3.468c0.59-0.911 0.937-1.996 0.937-3.16 0-3.219-2.618-5.837-5.837-5.837s-5.837 2.618-5.837 5.837 2.618 5.837 5.837 5.837c1.149 0 2.22-0.339 3.123-0.916l3.475 3.475 1.769-1.768zM9.469 13.668c0-2.299 1.87-4.169 4.169-4.169s4.169 1.87 4.169 4.169c0 2.298-1.87 4.169-4.169 4.169s-4.169-1.871-4.169-4.169z"></path>
</svg>
