<!-- Generated by IcoMoon.io -->
<svg version="1.1" xmlns="http://www.w3.org/2000/svg" width="24" height="24" viewBox="0 0 24 24">
<title>zoom-out</title>
<path fill="#2d2a2a" d="M21.414 18.586l-4.527-4.527c0.72-1.218 1.113-2.607 1.113-4.059 0-2.137-0.833-4.146-2.344-5.656-1.51-1.512-3.519-2.344-5.656-2.344s-4.146 0.832-5.656 2.344c-1.511 1.51-2.344 3.519-2.344 5.656s0.833 4.146 2.344 5.656c1.51 1.511 3.519 2.344 5.656 2.344 1.452 0 2.841-0.393 4.059-1.113l4.527 4.526c0.377 0.379 0.88 0.587 1.414 0.587s1.037-0.208 1.414-0.586c0.378-0.378 0.586-0.879 0.586-1.414 0-0.534-0.208-1.036-0.586-1.414zM14 11h-8v-2h8v2z"></path>
</svg>
